%TF.GenerationSoftware,KiCad,Pcbnew,(5.1.8)-1*%
%TF.CreationDate,2020-12-07T06:27:38+02:00*%
%TF.ProjectId,fpga_hat,66706761-5f68-4617-942e-6b696361645f,rev?*%
%TF.SameCoordinates,Original*%
%TF.FileFunction,Soldermask,Bot*%
%TF.FilePolarity,Negative*%
%FSLAX46Y46*%
G04 Gerber Fmt 4.6, Leading zero omitted, Abs format (unit mm)*
G04 Created by KiCad (PCBNEW (5.1.8)-1) date 2020-12-07 06:27:38*
%MOMM*%
%LPD*%
G01*
G04 APERTURE LIST*
%ADD10C,4.100000*%
%ADD11C,1.700000*%
%ADD12O,1.800000X1.800000*%
%ADD13C,7.100000*%
%ADD14C,3.700000*%
%ADD15O,1.700000X1.700000*%
G04 APERTURE END LIST*
D10*
%TO.C,Joy2*%
X153462000Y-101752000D03*
X153462000Y-126752000D03*
D11*
X156002000Y-118407000D03*
X156002000Y-115637000D03*
X156002000Y-112867000D03*
X156002000Y-110097000D03*
X153162000Y-119792000D03*
X153162000Y-117022000D03*
X153162000Y-114252000D03*
X153162000Y-111482000D03*
G36*
G01*
X153962000Y-109562000D02*
X152362000Y-109562000D01*
G75*
G02*
X152312000Y-109512000I0J50000D01*
G01*
X152312000Y-107912000D01*
G75*
G02*
X152362000Y-107862000I50000J0D01*
G01*
X153962000Y-107862000D01*
G75*
G02*
X154012000Y-107912000I0J-50000D01*
G01*
X154012000Y-109512000D01*
G75*
G02*
X153962000Y-109562000I-50000J0D01*
G01*
G37*
%TD*%
D12*
%TO.C,Joy2 Aux*%
X147040000Y-120660000D03*
X144500000Y-120660000D03*
X147040000Y-118120000D03*
X144500000Y-118120000D03*
X147040000Y-115580000D03*
X144500000Y-115580000D03*
X147040000Y-113040000D03*
X144500000Y-113040000D03*
X147040000Y-110500000D03*
G36*
G01*
X143600000Y-111350000D02*
X143600000Y-109650000D01*
G75*
G02*
X143650000Y-109600000I50000J0D01*
G01*
X145350000Y-109600000D01*
G75*
G02*
X145400000Y-109650000I0J-50000D01*
G01*
X145400000Y-111350000D01*
G75*
G02*
X145350000Y-111400000I-50000J0D01*
G01*
X143650000Y-111400000D01*
G75*
G02*
X143600000Y-111350000I0J50000D01*
G01*
G37*
%TD*%
D10*
%TO.C,Video Out*%
X109685000Y-135420000D03*
X84685000Y-135420000D03*
D11*
X92340000Y-137960000D03*
X94630000Y-137960000D03*
X96920000Y-137960000D03*
X99210000Y-137960000D03*
X101500000Y-137960000D03*
X93485000Y-135980000D03*
X95775000Y-135980000D03*
X98065000Y-135980000D03*
X100355000Y-135980000D03*
X102645000Y-135980000D03*
X92340000Y-134000000D03*
X94630000Y-134000000D03*
X96920000Y-134000000D03*
X99210000Y-134000000D03*
G36*
G01*
X100650000Y-134800000D02*
X100650000Y-133200000D01*
G75*
G02*
X100700000Y-133150000I50000J0D01*
G01*
X102300000Y-133150000D01*
G75*
G02*
X102350000Y-133200000I0J-50000D01*
G01*
X102350000Y-134800000D01*
G75*
G02*
X102300000Y-134850000I-50000J0D01*
G01*
X100700000Y-134850000D01*
G75*
G02*
X100650000Y-134800000I0J50000D01*
G01*
G37*
%TD*%
D13*
%TO.C,_*%
X152400000Y-139700000D03*
%TD*%
%TO.C,_*%
X69850000Y-139700000D03*
%TD*%
%TO.C,_*%
X69850000Y-44450000D03*
%TD*%
%TO.C,_*%
X152400000Y-44450000D03*
%TD*%
D12*
%TO.C,U8*%
X139700000Y-128270000D03*
X137160000Y-128270000D03*
X139700000Y-125730000D03*
X137160000Y-125730000D03*
X139700000Y-123190000D03*
X137160000Y-123190000D03*
X139700000Y-120650000D03*
X137160000Y-120650000D03*
X139700000Y-118110000D03*
X137160000Y-118110000D03*
X139700000Y-115570000D03*
X137160000Y-115570000D03*
X139700000Y-113030000D03*
X137160000Y-113030000D03*
X139700000Y-110490000D03*
X137160000Y-110490000D03*
X139700000Y-107950000D03*
X137160000Y-107950000D03*
X139700000Y-105410000D03*
X137160000Y-105410000D03*
X139700000Y-102870000D03*
X137160000Y-102870000D03*
X139700000Y-100330000D03*
X137160000Y-100330000D03*
X139700000Y-97790000D03*
X137160000Y-97790000D03*
X139700000Y-95250000D03*
X137160000Y-95250000D03*
X139700000Y-92710000D03*
X137160000Y-92710000D03*
X139700000Y-90170000D03*
X137160000Y-90170000D03*
X139700000Y-87630000D03*
X137160000Y-87630000D03*
X139700000Y-85090000D03*
X137160000Y-85090000D03*
X139700000Y-82550000D03*
X137160000Y-82550000D03*
X139700000Y-80010000D03*
X137160000Y-80010000D03*
X139700000Y-77470000D03*
X137160000Y-77470000D03*
X139700000Y-74930000D03*
X137160000Y-74930000D03*
X139700000Y-72390000D03*
X137160000Y-72390000D03*
X139700000Y-69850000D03*
X137160000Y-69850000D03*
X139700000Y-67310000D03*
X137160000Y-67310000D03*
X139700000Y-64770000D03*
X137160000Y-64770000D03*
X139700000Y-62230000D03*
X137160000Y-62230000D03*
X139700000Y-59690000D03*
X137160000Y-59690000D03*
X139700000Y-57150000D03*
X137160000Y-57150000D03*
X139700000Y-54610000D03*
X137160000Y-54610000D03*
X139700000Y-52070000D03*
X137160000Y-52070000D03*
X139700000Y-49530000D03*
G36*
G01*
X136260000Y-50380000D02*
X136260000Y-48680000D01*
G75*
G02*
X136310000Y-48630000I50000J0D01*
G01*
X138010000Y-48630000D01*
G75*
G02*
X138060000Y-48680000I0J-50000D01*
G01*
X138060000Y-50380000D01*
G75*
G02*
X138010000Y-50430000I-50000J0D01*
G01*
X136310000Y-50430000D01*
G75*
G02*
X136260000Y-50380000I0J50000D01*
G01*
G37*
%TD*%
%TO.C,GND RX|SDA TX|SCK 3.3V*%
X105380000Y-101500000D03*
X107920000Y-101500000D03*
X110460000Y-101500000D03*
G36*
G01*
X112150000Y-100600000D02*
X113850000Y-100600000D01*
G75*
G02*
X113900000Y-100650000I0J-50000D01*
G01*
X113900000Y-102350000D01*
G75*
G02*
X113850000Y-102400000I-50000J0D01*
G01*
X112150000Y-102400000D01*
G75*
G02*
X112100000Y-102350000I0J50000D01*
G01*
X112100000Y-100650000D01*
G75*
G02*
X112150000Y-100600000I50000J0D01*
G01*
G37*
%TD*%
D10*
%TO.C,Joy1*%
X153462000Y-68986000D03*
X153462000Y-93986000D03*
D11*
X156002000Y-85641000D03*
X156002000Y-82871000D03*
X156002000Y-80101000D03*
X156002000Y-77331000D03*
X153162000Y-87026000D03*
X153162000Y-84256000D03*
X153162000Y-81486000D03*
X153162000Y-78716000D03*
G36*
G01*
X153962000Y-76796000D02*
X152362000Y-76796000D01*
G75*
G02*
X152312000Y-76746000I0J50000D01*
G01*
X152312000Y-75146000D01*
G75*
G02*
X152362000Y-75096000I50000J0D01*
G01*
X153962000Y-75096000D01*
G75*
G02*
X154012000Y-75146000I0J-50000D01*
G01*
X154012000Y-76746000D01*
G75*
G02*
X153962000Y-76796000I-50000J0D01*
G01*
G37*
%TD*%
D14*
%TO.C,Audio R*%
X121000000Y-134500000D03*
G36*
G01*
X122882500Y-140932500D02*
X119117500Y-140932500D01*
G75*
G02*
X119067500Y-140882500I0J50000D01*
G01*
X119067500Y-137117500D01*
G75*
G02*
X119117500Y-137067500I50000J0D01*
G01*
X122882500Y-137067500D01*
G75*
G02*
X122932500Y-137117500I0J-50000D01*
G01*
X122932500Y-140882500D01*
G75*
G02*
X122882500Y-140932500I-50000J0D01*
G01*
G37*
%TD*%
%TO.C,Audio L*%
X134000000Y-134500000D03*
G36*
G01*
X135882500Y-140932500D02*
X132117500Y-140932500D01*
G75*
G02*
X132067500Y-140882500I0J50000D01*
G01*
X132067500Y-137117500D01*
G75*
G02*
X132117500Y-137067500I50000J0D01*
G01*
X135882500Y-137067500D01*
G75*
G02*
X135932500Y-137117500I0J-50000D01*
G01*
X135932500Y-140882500D01*
G75*
G02*
X135882500Y-140932500I-50000J0D01*
G01*
G37*
%TD*%
D12*
%TO.C,U7*%
X78740000Y-128270000D03*
X76200000Y-128270000D03*
X78740000Y-125730000D03*
X76200000Y-125730000D03*
X78740000Y-123190000D03*
X76200000Y-123190000D03*
X78740000Y-120650000D03*
X76200000Y-120650000D03*
X78740000Y-118110000D03*
X76200000Y-118110000D03*
X78740000Y-115570000D03*
X76200000Y-115570000D03*
X78740000Y-113030000D03*
X76200000Y-113030000D03*
X78740000Y-110490000D03*
X76200000Y-110490000D03*
X78740000Y-107950000D03*
X76200000Y-107950000D03*
X78740000Y-105410000D03*
X76200000Y-105410000D03*
X78740000Y-102870000D03*
X76200000Y-102870000D03*
X78740000Y-100330000D03*
X76200000Y-100330000D03*
X78740000Y-97790000D03*
X76200000Y-97790000D03*
X78740000Y-95250000D03*
X76200000Y-95250000D03*
X78740000Y-92710000D03*
X76200000Y-92710000D03*
X78740000Y-90170000D03*
X76200000Y-90170000D03*
X78740000Y-87630000D03*
X76200000Y-87630000D03*
X78740000Y-85090000D03*
X76200000Y-85090000D03*
X78740000Y-82550000D03*
X76200000Y-82550000D03*
X78740000Y-80010000D03*
X76200000Y-80010000D03*
X78740000Y-77470000D03*
X76200000Y-77470000D03*
X78740000Y-74930000D03*
X76200000Y-74930000D03*
X78740000Y-72390000D03*
X76200000Y-72390000D03*
X78740000Y-69850000D03*
X76200000Y-69850000D03*
X78740000Y-67310000D03*
X76200000Y-67310000D03*
X78740000Y-64770000D03*
X76200000Y-64770000D03*
X78740000Y-62230000D03*
X76200000Y-62230000D03*
X78740000Y-59690000D03*
X76200000Y-59690000D03*
X78740000Y-57150000D03*
X76200000Y-57150000D03*
X78740000Y-54610000D03*
X76200000Y-54610000D03*
X78740000Y-52070000D03*
X76200000Y-52070000D03*
X78740000Y-49530000D03*
G36*
G01*
X75300000Y-50380000D02*
X75300000Y-48680000D01*
G75*
G02*
X75350000Y-48630000I50000J0D01*
G01*
X77050000Y-48630000D01*
G75*
G02*
X77100000Y-48680000I0J-50000D01*
G01*
X77100000Y-50380000D01*
G75*
G02*
X77050000Y-50430000I-50000J0D01*
G01*
X75350000Y-50430000D01*
G75*
G02*
X75300000Y-50380000I0J50000D01*
G01*
G37*
%TD*%
D15*
%TO.C,RAM2*%
X127000000Y-55880000D03*
X111760000Y-93980000D03*
X127000000Y-58420000D03*
X111760000Y-91440000D03*
X127000000Y-60960000D03*
X111760000Y-88900000D03*
X127000000Y-63500000D03*
X111760000Y-86360000D03*
X127000000Y-66040000D03*
X111760000Y-83820000D03*
X127000000Y-68580000D03*
X111760000Y-81280000D03*
X127000000Y-71120000D03*
X111760000Y-78740000D03*
X127000000Y-73660000D03*
X111760000Y-76200000D03*
X127000000Y-76200000D03*
X111760000Y-73660000D03*
X127000000Y-78740000D03*
X111760000Y-71120000D03*
X127000000Y-81280000D03*
X111760000Y-68580000D03*
X127000000Y-83820000D03*
X111760000Y-66040000D03*
X127000000Y-86360000D03*
X111760000Y-63500000D03*
X127000000Y-88900000D03*
X111760000Y-60960000D03*
X127000000Y-91440000D03*
X111760000Y-58420000D03*
X127000000Y-93980000D03*
G36*
G01*
X110910000Y-56680000D02*
X110910000Y-55080000D01*
G75*
G02*
X110960000Y-55030000I50000J0D01*
G01*
X112560000Y-55030000D01*
G75*
G02*
X112610000Y-55080000I0J-50000D01*
G01*
X112610000Y-56680000D01*
G75*
G02*
X112560000Y-56730000I-50000J0D01*
G01*
X110960000Y-56730000D01*
G75*
G02*
X110910000Y-56680000I0J50000D01*
G01*
G37*
%TD*%
%TO.C,RAM1*%
X106172000Y-55880000D03*
X90932000Y-93980000D03*
X106172000Y-58420000D03*
X90932000Y-91440000D03*
X106172000Y-60960000D03*
X90932000Y-88900000D03*
X106172000Y-63500000D03*
X90932000Y-86360000D03*
X106172000Y-66040000D03*
X90932000Y-83820000D03*
X106172000Y-68580000D03*
X90932000Y-81280000D03*
X106172000Y-71120000D03*
X90932000Y-78740000D03*
X106172000Y-73660000D03*
X90932000Y-76200000D03*
X106172000Y-76200000D03*
X90932000Y-73660000D03*
X106172000Y-78740000D03*
X90932000Y-71120000D03*
X106172000Y-81280000D03*
X90932000Y-68580000D03*
X106172000Y-83820000D03*
X90932000Y-66040000D03*
X106172000Y-86360000D03*
X90932000Y-63500000D03*
X106172000Y-88900000D03*
X90932000Y-60960000D03*
X106172000Y-91440000D03*
X90932000Y-58420000D03*
X106172000Y-93980000D03*
G36*
G01*
X90082000Y-56680000D02*
X90082000Y-55080000D01*
G75*
G02*
X90132000Y-55030000I50000J0D01*
G01*
X91732000Y-55030000D01*
G75*
G02*
X91782000Y-55080000I0J-50000D01*
G01*
X91782000Y-56680000D01*
G75*
G02*
X91732000Y-56730000I-50000J0D01*
G01*
X90132000Y-56730000D01*
G75*
G02*
X90082000Y-56680000I0J50000D01*
G01*
G37*
%TD*%
M02*
