M48
; DRILL file {KiCad (5.1.9)-1} date 04/02/21 06:18:54
; FORMAT={-:-/ absolute / inch / decimal}
; #@! TF.CreationDate,2021-04-02T06:18:54+03:00
; #@! TF.GenerationSoftware,Kicad,Pcbnew,(5.1.9)-1
; #@! TF.FileFunction,Plated,1,2,PTH
FMAT,2
INCH
T1C0.0157
T2C0.0315
T3C0.0394
T4C0.0953
T5C0.0988
T6C0.1260
%
G90
G05
T1
X3.2283Y-4.4882
X3.325Y-4.475
X3.36Y-4.5782
X3.5827Y-4.7244
X3.6Y-4.49
X3.6398Y-4.8563
X3.8189Y-4.8425
X3.875Y-4.55
X3.878Y-4.7835
X3.905Y-5.5319
X3.9173Y-5.0
X3.9567Y-4.4291
X3.9567Y-4.5669
X4.025Y-4.375
X4.0551Y-5.1181
X4.252Y-4.75
X4.2815Y-5.1181
X4.395Y-5.105
X4.4094Y-4.3504
X4.685Y-4.4783
X4.7Y-5.175
X4.825Y-4.8
X4.83Y-5.175
X4.8917Y-5.0492
X4.95Y-4.35
X4.9803Y-4.311
X5.0Y-5.0492
X5.075Y-4.8
X5.0984Y-4.311
X5.15Y-4.45
X5.2165Y-4.0354
X5.2165Y-4.2323
X5.7087Y-3.0315
X5.876Y-3.5335
X5.876Y-4.1634
T2
X3.58Y-2.2
X3.58Y-2.3
X3.58Y-2.4
X3.58Y-2.5
X3.58Y-2.6
X3.58Y-2.7
X3.58Y-2.8
X3.58Y-2.9
X3.58Y-3.0
X3.58Y-3.1
X3.58Y-3.2
X3.58Y-3.3
X3.58Y-3.4
X3.58Y-3.5
X3.58Y-3.6
X3.58Y-3.7
X4.18Y-2.2
X4.18Y-2.3
X4.18Y-2.4
X4.18Y-2.5
X4.18Y-2.6
X4.18Y-2.7
X4.18Y-2.8
X4.18Y-2.9
X4.18Y-3.0
X4.18Y-3.1
X4.18Y-3.2
X4.18Y-3.3
X4.18Y-3.4
X4.18Y-3.5
X4.18Y-3.6
X4.18Y-3.7
X4.4Y-2.2
X4.4Y-2.3
X4.4Y-2.4
X4.4Y-2.5
X4.4Y-2.6
X4.4Y-2.7
X4.4Y-2.8
X4.4Y-2.9
X4.4Y-3.0
X4.4Y-3.1
X4.4Y-3.2
X4.4Y-3.3
X4.4Y-3.4
X4.4Y-3.5
X4.4Y-3.6
X4.4Y-3.7
X5.0Y-2.2
X5.0Y-2.3
X5.0Y-2.4
X5.0Y-2.5
X5.0Y-2.6
X5.0Y-2.7
X5.0Y-2.8
X5.0Y-2.9
X5.0Y-3.0
X5.0Y-3.1
X5.0Y-3.2
X5.0Y-3.3
X5.0Y-3.4
X5.0Y-3.5
X5.0Y-3.6
X5.0Y-3.7
T3
X3.0Y-1.95
X3.0Y-2.05
X3.0Y-2.15
X3.0Y-2.25
X3.0Y-2.35
X3.0Y-2.45
X3.0Y-2.55
X3.0Y-2.65
X3.0Y-2.75
X3.0Y-2.85
X3.0Y-2.95
X3.0Y-3.05
X3.0Y-3.15
X3.0Y-3.25
X3.0Y-3.35
X3.0Y-3.45
X3.0Y-3.55
X3.0Y-3.65
X3.0Y-3.75
X3.0Y-3.85
X3.0Y-3.95
X3.0Y-4.05
X3.0Y-4.15
X3.0Y-4.25
X3.0Y-4.35
X3.0Y-4.45
X3.0Y-4.55
X3.0Y-4.65
X3.0Y-4.75
X3.0Y-4.85
X3.0Y-4.95
X3.0Y-5.05
X3.1Y-1.95
X3.1Y-2.05
X3.1Y-2.15
X3.1Y-2.25
X3.1Y-2.35
X3.1Y-2.45
X3.1Y-2.55
X3.1Y-2.65
X3.1Y-2.75
X3.1Y-2.85
X3.1Y-2.95
X3.1Y-3.05
X3.1Y-3.15
X3.1Y-3.25
X3.1Y-3.35
X3.1Y-3.45
X3.1Y-3.55
X3.1Y-3.65
X3.1Y-3.75
X3.1Y-3.85
X3.1Y-3.95
X3.1Y-4.05
X3.1Y-4.15
X3.1Y-4.25
X3.1Y-4.35
X3.1Y-4.45
X3.1Y-4.55
X3.1Y-4.65
X3.1Y-4.75
X3.1Y-4.85
X3.1Y-4.95
X3.1Y-5.05
X3.6354Y-5.2756
X3.6354Y-5.4315
X3.6805Y-5.3535
X3.7256Y-5.2756
X3.7256Y-5.4315
X3.7707Y-5.3535
X3.8157Y-5.2756
X3.8157Y-5.4315
X3.8608Y-5.3535
X3.9059Y-5.2756
X3.9059Y-5.4315
X3.951Y-5.3535
X3.9961Y-5.2756
X3.9961Y-5.4315
X4.0411Y-5.3535
X4.1488Y-3.9961
X4.2488Y-3.9961
X4.3488Y-3.9961
X4.4488Y-3.9961
X5.4Y-1.95
X5.4Y-2.05
X5.4Y-2.15
X5.4Y-2.25
X5.4Y-2.35
X5.4Y-2.45
X5.4Y-2.55
X5.4Y-2.65
X5.4Y-2.75
X5.4Y-2.85
X5.4Y-2.95
X5.4Y-3.05
X5.4Y-3.15
X5.4Y-3.25
X5.4Y-3.35
X5.4Y-3.45
X5.4Y-3.55
X5.4Y-3.65
X5.4Y-3.75
X5.4Y-3.85
X5.4Y-3.95
X5.4Y-4.05
X5.4Y-4.15
X5.4Y-4.25
X5.4Y-4.35
X5.4Y-4.45
X5.4Y-4.55
X5.4Y-4.65
X5.4Y-4.75
X5.4Y-4.85
X5.4Y-4.95
X5.4Y-5.05
X5.5Y-1.95
X5.5Y-2.05
X5.5Y-2.15
X5.5Y-2.25
X5.5Y-2.35
X5.5Y-2.45
X5.5Y-2.55
X5.5Y-2.65
X5.5Y-2.75
X5.5Y-2.85
X5.5Y-2.95
X5.5Y-3.05
X5.5Y-3.15
X5.5Y-3.25
X5.5Y-3.35
X5.5Y-3.45
X5.5Y-3.55
X5.5Y-3.65
X5.5Y-3.75
X5.5Y-3.85
X5.5Y-3.95
X5.5Y-4.05
X5.5Y-4.15
X5.5Y-4.25
X5.5Y-4.35
X5.5Y-4.45
X5.5Y-4.55
X5.5Y-4.65
X5.5Y-4.75
X5.5Y-4.85
X5.5Y-4.95
X5.5Y-5.05
X5.689Y-4.3504
X5.689Y-4.4504
X5.689Y-4.5504
X5.689Y-4.6504
X5.689Y-4.7504
X5.789Y-4.3504
X5.789Y-4.4504
X5.789Y-4.5504
X5.789Y-4.6504
X5.789Y-4.7504
X6.03Y-2.99
X6.03Y-3.0991
X6.03Y-3.2081
X6.03Y-3.3172
X6.03Y-3.4262
X6.03Y-4.28
X6.03Y-4.3891
X6.03Y-4.4981
X6.03Y-4.6072
X6.03Y-4.7162
X6.1418Y-3.0445
X6.1418Y-3.1536
X6.1418Y-3.2626
X6.1418Y-3.3717
X6.1418Y-4.3345
X6.1418Y-4.4436
X6.1418Y-4.5526
X6.1418Y-4.6617
T4
X4.765Y-5.295
X5.275Y-5.295
T5
X4.765Y-5.4722
X5.275Y-5.4722
T6
X3.3341Y-5.3315
X4.3183Y-5.3315
X6.0418Y-2.716
X6.0418Y-3.7002
X6.0418Y-4.006
X6.0418Y-4.9902
T0
M30
