%TF.GenerationSoftware,KiCad,Pcbnew,(5.1.8)-1*%
%TF.CreationDate,2020-12-07T06:27:38+02:00*%
%TF.ProjectId,fpga_hat,66706761-5f68-4617-942e-6b696361645f,rev?*%
%TF.SameCoordinates,Original*%
%TF.FileFunction,Soldermask,Top*%
%TF.FilePolarity,Negative*%
%FSLAX46Y46*%
G04 Gerber Fmt 4.6, Leading zero omitted, Abs format (unit mm)*
G04 Created by KiCad (PCBNEW (5.1.8)-1) date 2020-12-07 06:27:38*
%MOMM*%
%LPD*%
G01*
G04 APERTURE LIST*
%ADD10C,4.100000*%
%ADD11C,1.700000*%
%ADD12O,1.800000X1.800000*%
%ADD13C,7.100000*%
%ADD14C,3.700000*%
%ADD15O,1.700000X1.700000*%
G04 APERTURE END LIST*
D10*
%TO.C,Joy2*%
X153462000Y-101752000D03*
X153462000Y-126752000D03*
D11*
X156002000Y-118407000D03*
X156002000Y-115637000D03*
X156002000Y-112867000D03*
X156002000Y-110097000D03*
X153162000Y-119792000D03*
X153162000Y-117022000D03*
X153162000Y-114252000D03*
X153162000Y-111482000D03*
G36*
G01*
X153962000Y-109562000D02*
X152362000Y-109562000D01*
G75*
G02*
X152312000Y-109512000I0J50000D01*
G01*
X152312000Y-107912000D01*
G75*
G02*
X152362000Y-107862000I50000J0D01*
G01*
X153962000Y-107862000D01*
G75*
G02*
X154012000Y-107912000I0J-50000D01*
G01*
X154012000Y-109512000D01*
G75*
G02*
X153962000Y-109562000I-50000J0D01*
G01*
G37*
%TD*%
D12*
%TO.C,Joy2 Aux*%
X147040000Y-120660000D03*
X144500000Y-120660000D03*
X147040000Y-118120000D03*
X144500000Y-118120000D03*
X147040000Y-115580000D03*
X144500000Y-115580000D03*
X147040000Y-113040000D03*
X144500000Y-113040000D03*
X147040000Y-110500000D03*
G36*
G01*
X143600000Y-111350000D02*
X143600000Y-109650000D01*
G75*
G02*
X143650000Y-109600000I50000J0D01*
G01*
X145350000Y-109600000D01*
G75*
G02*
X145400000Y-109650000I0J-50000D01*
G01*
X145400000Y-111350000D01*
G75*
G02*
X145350000Y-111400000I-50000J0D01*
G01*
X143650000Y-111400000D01*
G75*
G02*
X143600000Y-111350000I0J50000D01*
G01*
G37*
%TD*%
D10*
%TO.C,Video Out*%
X109685000Y-135420000D03*
X84685000Y-135420000D03*
D11*
X92340000Y-137960000D03*
X94630000Y-137960000D03*
X96920000Y-137960000D03*
X99210000Y-137960000D03*
X101500000Y-137960000D03*
X93485000Y-135980000D03*
X95775000Y-135980000D03*
X98065000Y-135980000D03*
X100355000Y-135980000D03*
X102645000Y-135980000D03*
X92340000Y-134000000D03*
X94630000Y-134000000D03*
X96920000Y-134000000D03*
X99210000Y-134000000D03*
G36*
G01*
X100650000Y-134800000D02*
X100650000Y-133200000D01*
G75*
G02*
X100700000Y-133150000I50000J0D01*
G01*
X102300000Y-133150000D01*
G75*
G02*
X102350000Y-133200000I0J-50000D01*
G01*
X102350000Y-134800000D01*
G75*
G02*
X102300000Y-134850000I-50000J0D01*
G01*
X100700000Y-134850000D01*
G75*
G02*
X100650000Y-134800000I0J50000D01*
G01*
G37*
%TD*%
D13*
%TO.C,_*%
X152400000Y-139700000D03*
%TD*%
%TO.C,_*%
X69850000Y-139700000D03*
%TD*%
%TO.C,_*%
X69850000Y-44450000D03*
%TD*%
%TO.C,_*%
X152400000Y-44450000D03*
%TD*%
D12*
%TO.C,U8*%
X139700000Y-128270000D03*
X137160000Y-128270000D03*
X139700000Y-125730000D03*
X137160000Y-125730000D03*
X139700000Y-123190000D03*
X137160000Y-123190000D03*
X139700000Y-120650000D03*
X137160000Y-120650000D03*
X139700000Y-118110000D03*
X137160000Y-118110000D03*
X139700000Y-115570000D03*
X137160000Y-115570000D03*
X139700000Y-113030000D03*
X137160000Y-113030000D03*
X139700000Y-110490000D03*
X137160000Y-110490000D03*
X139700000Y-107950000D03*
X137160000Y-107950000D03*
X139700000Y-105410000D03*
X137160000Y-105410000D03*
X139700000Y-102870000D03*
X137160000Y-102870000D03*
X139700000Y-100330000D03*
X137160000Y-100330000D03*
X139700000Y-97790000D03*
X137160000Y-97790000D03*
X139700000Y-95250000D03*
X137160000Y-95250000D03*
X139700000Y-92710000D03*
X137160000Y-92710000D03*
X139700000Y-90170000D03*
X137160000Y-90170000D03*
X139700000Y-87630000D03*
X137160000Y-87630000D03*
X139700000Y-85090000D03*
X137160000Y-85090000D03*
X139700000Y-82550000D03*
X137160000Y-82550000D03*
X139700000Y-80010000D03*
X137160000Y-80010000D03*
X139700000Y-77470000D03*
X137160000Y-77470000D03*
X139700000Y-74930000D03*
X137160000Y-74930000D03*
X139700000Y-72390000D03*
X137160000Y-72390000D03*
X139700000Y-69850000D03*
X137160000Y-69850000D03*
X139700000Y-67310000D03*
X137160000Y-67310000D03*
X139700000Y-64770000D03*
X137160000Y-64770000D03*
X139700000Y-62230000D03*
X137160000Y-62230000D03*
X139700000Y-59690000D03*
X137160000Y-59690000D03*
X139700000Y-57150000D03*
X137160000Y-57150000D03*
X139700000Y-54610000D03*
X137160000Y-54610000D03*
X139700000Y-52070000D03*
X137160000Y-52070000D03*
X139700000Y-49530000D03*
G36*
G01*
X136260000Y-50380000D02*
X136260000Y-48680000D01*
G75*
G02*
X136310000Y-48630000I50000J0D01*
G01*
X138010000Y-48630000D01*
G75*
G02*
X138060000Y-48680000I0J-50000D01*
G01*
X138060000Y-50380000D01*
G75*
G02*
X138010000Y-50430000I-50000J0D01*
G01*
X136310000Y-50430000D01*
G75*
G02*
X136260000Y-50380000I0J50000D01*
G01*
G37*
%TD*%
%TO.C,GND RX|SDA TX|SCK 3.3V*%
X105380000Y-101500000D03*
X107920000Y-101500000D03*
X110460000Y-101500000D03*
G36*
G01*
X112150000Y-100600000D02*
X113850000Y-100600000D01*
G75*
G02*
X113900000Y-100650000I0J-50000D01*
G01*
X113900000Y-102350000D01*
G75*
G02*
X113850000Y-102400000I-50000J0D01*
G01*
X112150000Y-102400000D01*
G75*
G02*
X112100000Y-102350000I0J50000D01*
G01*
X112100000Y-100650000D01*
G75*
G02*
X112150000Y-100600000I50000J0D01*
G01*
G37*
%TD*%
D10*
%TO.C,Joy1*%
X153462000Y-68986000D03*
X153462000Y-93986000D03*
D11*
X156002000Y-85641000D03*
X156002000Y-82871000D03*
X156002000Y-80101000D03*
X156002000Y-77331000D03*
X153162000Y-87026000D03*
X153162000Y-84256000D03*
X153162000Y-81486000D03*
X153162000Y-78716000D03*
G36*
G01*
X153962000Y-76796000D02*
X152362000Y-76796000D01*
G75*
G02*
X152312000Y-76746000I0J50000D01*
G01*
X152312000Y-75146000D01*
G75*
G02*
X152362000Y-75096000I50000J0D01*
G01*
X153962000Y-75096000D01*
G75*
G02*
X154012000Y-75146000I0J-50000D01*
G01*
X154012000Y-76746000D01*
G75*
G02*
X153962000Y-76796000I-50000J0D01*
G01*
G37*
%TD*%
%TO.C,IC3*%
G36*
G01*
X127335000Y-106592000D02*
X127935000Y-106592000D01*
G75*
G02*
X127985000Y-106642000I0J-50000D01*
G01*
X127985000Y-108242000D01*
G75*
G02*
X127935000Y-108292000I-50000J0D01*
G01*
X127335000Y-108292000D01*
G75*
G02*
X127285000Y-108242000I0J50000D01*
G01*
X127285000Y-106642000D01*
G75*
G02*
X127335000Y-106592000I50000J0D01*
G01*
G37*
G36*
G01*
X126065000Y-106592000D02*
X126665000Y-106592000D01*
G75*
G02*
X126715000Y-106642000I0J-50000D01*
G01*
X126715000Y-108242000D01*
G75*
G02*
X126665000Y-108292000I-50000J0D01*
G01*
X126065000Y-108292000D01*
G75*
G02*
X126015000Y-108242000I0J50000D01*
G01*
X126015000Y-106642000D01*
G75*
G02*
X126065000Y-106592000I50000J0D01*
G01*
G37*
G36*
G01*
X124795000Y-106592000D02*
X125395000Y-106592000D01*
G75*
G02*
X125445000Y-106642000I0J-50000D01*
G01*
X125445000Y-108242000D01*
G75*
G02*
X125395000Y-108292000I-50000J0D01*
G01*
X124795000Y-108292000D01*
G75*
G02*
X124745000Y-108242000I0J50000D01*
G01*
X124745000Y-106642000D01*
G75*
G02*
X124795000Y-106592000I50000J0D01*
G01*
G37*
G36*
G01*
X123525000Y-106592000D02*
X124125000Y-106592000D01*
G75*
G02*
X124175000Y-106642000I0J-50000D01*
G01*
X124175000Y-108242000D01*
G75*
G02*
X124125000Y-108292000I-50000J0D01*
G01*
X123525000Y-108292000D01*
G75*
G02*
X123475000Y-108242000I0J50000D01*
G01*
X123475000Y-106642000D01*
G75*
G02*
X123525000Y-106592000I50000J0D01*
G01*
G37*
G36*
G01*
X123525000Y-101192000D02*
X124125000Y-101192000D01*
G75*
G02*
X124175000Y-101242000I0J-50000D01*
G01*
X124175000Y-102842000D01*
G75*
G02*
X124125000Y-102892000I-50000J0D01*
G01*
X123525000Y-102892000D01*
G75*
G02*
X123475000Y-102842000I0J50000D01*
G01*
X123475000Y-101242000D01*
G75*
G02*
X123525000Y-101192000I50000J0D01*
G01*
G37*
G36*
G01*
X124795000Y-101192000D02*
X125395000Y-101192000D01*
G75*
G02*
X125445000Y-101242000I0J-50000D01*
G01*
X125445000Y-102842000D01*
G75*
G02*
X125395000Y-102892000I-50000J0D01*
G01*
X124795000Y-102892000D01*
G75*
G02*
X124745000Y-102842000I0J50000D01*
G01*
X124745000Y-101242000D01*
G75*
G02*
X124795000Y-101192000I50000J0D01*
G01*
G37*
G36*
G01*
X126065000Y-101192000D02*
X126665000Y-101192000D01*
G75*
G02*
X126715000Y-101242000I0J-50000D01*
G01*
X126715000Y-102842000D01*
G75*
G02*
X126665000Y-102892000I-50000J0D01*
G01*
X126065000Y-102892000D01*
G75*
G02*
X126015000Y-102842000I0J50000D01*
G01*
X126015000Y-101242000D01*
G75*
G02*
X126065000Y-101192000I50000J0D01*
G01*
G37*
G36*
G01*
X127335000Y-101192000D02*
X127935000Y-101192000D01*
G75*
G02*
X127985000Y-101242000I0J-50000D01*
G01*
X127985000Y-102842000D01*
G75*
G02*
X127935000Y-102892000I-50000J0D01*
G01*
X127335000Y-102892000D01*
G75*
G02*
X127285000Y-102842000I0J50000D01*
G01*
X127285000Y-101242000D01*
G75*
G02*
X127335000Y-101192000I50000J0D01*
G01*
G37*
%TD*%
D14*
%TO.C,Audio R*%
X121000000Y-134500000D03*
G36*
G01*
X122882500Y-140932500D02*
X119117500Y-140932500D01*
G75*
G02*
X119067500Y-140882500I0J50000D01*
G01*
X119067500Y-137117500D01*
G75*
G02*
X119117500Y-137067500I50000J0D01*
G01*
X122882500Y-137067500D01*
G75*
G02*
X122932500Y-137117500I0J-50000D01*
G01*
X122932500Y-140882500D01*
G75*
G02*
X122882500Y-140932500I-50000J0D01*
G01*
G37*
%TD*%
%TO.C,Audio L*%
X134000000Y-134500000D03*
G36*
G01*
X135882500Y-140932500D02*
X132117500Y-140932500D01*
G75*
G02*
X132067500Y-140882500I0J50000D01*
G01*
X132067500Y-137117500D01*
G75*
G02*
X132117500Y-137067500I50000J0D01*
G01*
X135882500Y-137067500D01*
G75*
G02*
X135932500Y-137117500I0J-50000D01*
G01*
X135932500Y-140882500D01*
G75*
G02*
X135882500Y-140932500I-50000J0D01*
G01*
G37*
%TD*%
%TO.C,R14*%
G36*
G01*
X123804230Y-124268000D02*
X125115770Y-124268000D01*
G75*
G02*
X125385000Y-124537230I0J-269230D01*
G01*
X125385000Y-125398770D01*
G75*
G02*
X125115770Y-125668000I-269230J0D01*
G01*
X123804230Y-125668000D01*
G75*
G02*
X123535000Y-125398770I0J269230D01*
G01*
X123535000Y-124537230D01*
G75*
G02*
X123804230Y-124268000I269230J0D01*
G01*
G37*
G36*
G01*
X123804230Y-121168000D02*
X125115770Y-121168000D01*
G75*
G02*
X125385000Y-121437230I0J-269230D01*
G01*
X125385000Y-122298770D01*
G75*
G02*
X125115770Y-122568000I-269230J0D01*
G01*
X123804230Y-122568000D01*
G75*
G02*
X123535000Y-122298770I0J269230D01*
G01*
X123535000Y-121437230D01*
G75*
G02*
X123804230Y-121168000I269230J0D01*
G01*
G37*
%TD*%
%TO.C,R13*%
G36*
G01*
X126344230Y-124268000D02*
X127655770Y-124268000D01*
G75*
G02*
X127925000Y-124537230I0J-269230D01*
G01*
X127925000Y-125398770D01*
G75*
G02*
X127655770Y-125668000I-269230J0D01*
G01*
X126344230Y-125668000D01*
G75*
G02*
X126075000Y-125398770I0J269230D01*
G01*
X126075000Y-124537230D01*
G75*
G02*
X126344230Y-124268000I269230J0D01*
G01*
G37*
G36*
G01*
X126344230Y-121168000D02*
X127655770Y-121168000D01*
G75*
G02*
X127925000Y-121437230I0J-269230D01*
G01*
X127925000Y-122298770D01*
G75*
G02*
X127655770Y-122568000I-269230J0D01*
G01*
X126344230Y-122568000D01*
G75*
G02*
X126075000Y-122298770I0J269230D01*
G01*
X126075000Y-121437230D01*
G75*
G02*
X126344230Y-121168000I269230J0D01*
G01*
G37*
%TD*%
%TO.C,R12*%
G36*
G01*
X118250000Y-120248230D02*
X118250000Y-121559770D01*
G75*
G02*
X117980770Y-121829000I-269230J0D01*
G01*
X117119230Y-121829000D01*
G75*
G02*
X116850000Y-121559770I0J269230D01*
G01*
X116850000Y-120248230D01*
G75*
G02*
X117119230Y-119979000I269230J0D01*
G01*
X117980770Y-119979000D01*
G75*
G02*
X118250000Y-120248230I0J-269230D01*
G01*
G37*
G36*
G01*
X121350000Y-120248230D02*
X121350000Y-121559770D01*
G75*
G02*
X121080770Y-121829000I-269230J0D01*
G01*
X120219230Y-121829000D01*
G75*
G02*
X119950000Y-121559770I0J269230D01*
G01*
X119950000Y-120248230D01*
G75*
G02*
X120219230Y-119979000I269230J0D01*
G01*
X121080770Y-119979000D01*
G75*
G02*
X121350000Y-120248230I0J-269230D01*
G01*
G37*
%TD*%
%TO.C,R11*%
G36*
G01*
X131458000Y-120248230D02*
X131458000Y-121559770D01*
G75*
G02*
X131188770Y-121829000I-269230J0D01*
G01*
X130327230Y-121829000D01*
G75*
G02*
X130058000Y-121559770I0J269230D01*
G01*
X130058000Y-120248230D01*
G75*
G02*
X130327230Y-119979000I269230J0D01*
G01*
X131188770Y-119979000D01*
G75*
G02*
X131458000Y-120248230I0J-269230D01*
G01*
G37*
G36*
G01*
X134558000Y-120248230D02*
X134558000Y-121559770D01*
G75*
G02*
X134288770Y-121829000I-269230J0D01*
G01*
X133427230Y-121829000D01*
G75*
G02*
X133158000Y-121559770I0J269230D01*
G01*
X133158000Y-120248230D01*
G75*
G02*
X133427230Y-119979000I269230J0D01*
G01*
X134288770Y-119979000D01*
G75*
G02*
X134558000Y-120248230I0J-269230D01*
G01*
G37*
%TD*%
%TO.C,R10*%
G36*
G01*
X118276000Y-116184230D02*
X118276000Y-117495770D01*
G75*
G02*
X118006770Y-117765000I-269230J0D01*
G01*
X117145230Y-117765000D01*
G75*
G02*
X116876000Y-117495770I0J269230D01*
G01*
X116876000Y-116184230D01*
G75*
G02*
X117145230Y-115915000I269230J0D01*
G01*
X118006770Y-115915000D01*
G75*
G02*
X118276000Y-116184230I0J-269230D01*
G01*
G37*
G36*
G01*
X121376000Y-116184230D02*
X121376000Y-117495770D01*
G75*
G02*
X121106770Y-117765000I-269230J0D01*
G01*
X120245230Y-117765000D01*
G75*
G02*
X119976000Y-117495770I0J269230D01*
G01*
X119976000Y-116184230D01*
G75*
G02*
X120245230Y-115915000I269230J0D01*
G01*
X121106770Y-115915000D01*
G75*
G02*
X121376000Y-116184230I0J-269230D01*
G01*
G37*
%TD*%
%TO.C,R9*%
G36*
G01*
X131484000Y-116184230D02*
X131484000Y-117495770D01*
G75*
G02*
X131214770Y-117765000I-269230J0D01*
G01*
X130353230Y-117765000D01*
G75*
G02*
X130084000Y-117495770I0J269230D01*
G01*
X130084000Y-116184230D01*
G75*
G02*
X130353230Y-115915000I269230J0D01*
G01*
X131214770Y-115915000D01*
G75*
G02*
X131484000Y-116184230I0J-269230D01*
G01*
G37*
G36*
G01*
X134584000Y-116184230D02*
X134584000Y-117495770D01*
G75*
G02*
X134314770Y-117765000I-269230J0D01*
G01*
X133453230Y-117765000D01*
G75*
G02*
X133184000Y-117495770I0J269230D01*
G01*
X133184000Y-116184230D01*
G75*
G02*
X133453230Y-115915000I269230J0D01*
G01*
X134314770Y-115915000D01*
G75*
G02*
X134584000Y-116184230I0J-269230D01*
G01*
G37*
%TD*%
%TO.C,C12*%
G36*
G01*
X119937500Y-126411134D02*
X119937500Y-125048866D01*
G75*
G02*
X120206366Y-124780000I268866J0D01*
G01*
X121093634Y-124780000D01*
G75*
G02*
X121362500Y-125048866I0J-268866D01*
G01*
X121362500Y-126411134D01*
G75*
G02*
X121093634Y-126680000I-268866J0D01*
G01*
X120206366Y-126680000D01*
G75*
G02*
X119937500Y-126411134I0J268866D01*
G01*
G37*
G36*
G01*
X116812500Y-126411134D02*
X116812500Y-125048866D01*
G75*
G02*
X117081366Y-124780000I268866J0D01*
G01*
X117968634Y-124780000D01*
G75*
G02*
X118237500Y-125048866I0J-268866D01*
G01*
X118237500Y-126411134D01*
G75*
G02*
X117968634Y-126680000I-268866J0D01*
G01*
X117081366Y-126680000D01*
G75*
G02*
X116812500Y-126411134I0J268866D01*
G01*
G37*
%TD*%
%TO.C,C11*%
G36*
G01*
X133145500Y-126411134D02*
X133145500Y-125048866D01*
G75*
G02*
X133414366Y-124780000I268866J0D01*
G01*
X134301634Y-124780000D01*
G75*
G02*
X134570500Y-125048866I0J-268866D01*
G01*
X134570500Y-126411134D01*
G75*
G02*
X134301634Y-126680000I-268866J0D01*
G01*
X133414366Y-126680000D01*
G75*
G02*
X133145500Y-126411134I0J268866D01*
G01*
G37*
G36*
G01*
X130020500Y-126411134D02*
X130020500Y-125048866D01*
G75*
G02*
X130289366Y-124780000I268866J0D01*
G01*
X131176634Y-124780000D01*
G75*
G02*
X131445500Y-125048866I0J-268866D01*
G01*
X131445500Y-126411134D01*
G75*
G02*
X131176634Y-126680000I-268866J0D01*
G01*
X130289366Y-126680000D01*
G75*
G02*
X130020500Y-126411134I0J268866D01*
G01*
G37*
%TD*%
%TO.C,C10*%
G36*
G01*
X123778866Y-118960000D02*
X125141134Y-118960000D01*
G75*
G02*
X125410000Y-119228866I0J-268866D01*
G01*
X125410000Y-120116134D01*
G75*
G02*
X125141134Y-120385000I-268866J0D01*
G01*
X123778866Y-120385000D01*
G75*
G02*
X123510000Y-120116134I0J268866D01*
G01*
X123510000Y-119228866D01*
G75*
G02*
X123778866Y-118960000I268866J0D01*
G01*
G37*
G36*
G01*
X123778866Y-115835000D02*
X125141134Y-115835000D01*
G75*
G02*
X125410000Y-116103866I0J-268866D01*
G01*
X125410000Y-116991134D01*
G75*
G02*
X125141134Y-117260000I-268866J0D01*
G01*
X123778866Y-117260000D01*
G75*
G02*
X123510000Y-116991134I0J268866D01*
G01*
X123510000Y-116103866D01*
G75*
G02*
X123778866Y-115835000I268866J0D01*
G01*
G37*
%TD*%
%TO.C,C9*%
G36*
G01*
X126318866Y-118998500D02*
X127681134Y-118998500D01*
G75*
G02*
X127950000Y-119267366I0J-268866D01*
G01*
X127950000Y-120154634D01*
G75*
G02*
X127681134Y-120423500I-268866J0D01*
G01*
X126318866Y-120423500D01*
G75*
G02*
X126050000Y-120154634I0J268866D01*
G01*
X126050000Y-119267366D01*
G75*
G02*
X126318866Y-118998500I268866J0D01*
G01*
G37*
G36*
G01*
X126318866Y-115873500D02*
X127681134Y-115873500D01*
G75*
G02*
X127950000Y-116142366I0J-268866D01*
G01*
X127950000Y-117029634D01*
G75*
G02*
X127681134Y-117298500I-268866J0D01*
G01*
X126318866Y-117298500D01*
G75*
G02*
X126050000Y-117029634I0J268866D01*
G01*
X126050000Y-116142366D01*
G75*
G02*
X126318866Y-115873500I268866J0D01*
G01*
G37*
%TD*%
%TO.C,C8*%
G36*
G01*
X116920866Y-110285500D02*
X118283134Y-110285500D01*
G75*
G02*
X118552000Y-110554366I0J-268866D01*
G01*
X118552000Y-111441634D01*
G75*
G02*
X118283134Y-111710500I-268866J0D01*
G01*
X116920866Y-111710500D01*
G75*
G02*
X116652000Y-111441634I0J268866D01*
G01*
X116652000Y-110554366D01*
G75*
G02*
X116920866Y-110285500I268866J0D01*
G01*
G37*
G36*
G01*
X116920866Y-107160500D02*
X118283134Y-107160500D01*
G75*
G02*
X118552000Y-107429366I0J-268866D01*
G01*
X118552000Y-108316634D01*
G75*
G02*
X118283134Y-108585500I-268866J0D01*
G01*
X116920866Y-108585500D01*
G75*
G02*
X116652000Y-108316634I0J268866D01*
G01*
X116652000Y-107429366D01*
G75*
G02*
X116920866Y-107160500I268866J0D01*
G01*
G37*
%TD*%
%TO.C,C7*%
G36*
G01*
X119460866Y-110285500D02*
X120823134Y-110285500D01*
G75*
G02*
X121092000Y-110554366I0J-268866D01*
G01*
X121092000Y-111441634D01*
G75*
G02*
X120823134Y-111710500I-268866J0D01*
G01*
X119460866Y-111710500D01*
G75*
G02*
X119192000Y-111441634I0J268866D01*
G01*
X119192000Y-110554366D01*
G75*
G02*
X119460866Y-110285500I268866J0D01*
G01*
G37*
G36*
G01*
X119460866Y-107160500D02*
X120823134Y-107160500D01*
G75*
G02*
X121092000Y-107429366I0J-268866D01*
G01*
X121092000Y-108316634D01*
G75*
G02*
X120823134Y-108585500I-268866J0D01*
G01*
X119460866Y-108585500D01*
G75*
G02*
X119192000Y-108316634I0J268866D01*
G01*
X119192000Y-107429366D01*
G75*
G02*
X119460866Y-107160500I268866J0D01*
G01*
G37*
%TD*%
D12*
%TO.C,U7*%
X78740000Y-128270000D03*
X76200000Y-128270000D03*
X78740000Y-125730000D03*
X76200000Y-125730000D03*
X78740000Y-123190000D03*
X76200000Y-123190000D03*
X78740000Y-120650000D03*
X76200000Y-120650000D03*
X78740000Y-118110000D03*
X76200000Y-118110000D03*
X78740000Y-115570000D03*
X76200000Y-115570000D03*
X78740000Y-113030000D03*
X76200000Y-113030000D03*
X78740000Y-110490000D03*
X76200000Y-110490000D03*
X78740000Y-107950000D03*
X76200000Y-107950000D03*
X78740000Y-105410000D03*
X76200000Y-105410000D03*
X78740000Y-102870000D03*
X76200000Y-102870000D03*
X78740000Y-100330000D03*
X76200000Y-100330000D03*
X78740000Y-97790000D03*
X76200000Y-97790000D03*
X78740000Y-95250000D03*
X76200000Y-95250000D03*
X78740000Y-92710000D03*
X76200000Y-92710000D03*
X78740000Y-90170000D03*
X76200000Y-90170000D03*
X78740000Y-87630000D03*
X76200000Y-87630000D03*
X78740000Y-85090000D03*
X76200000Y-85090000D03*
X78740000Y-82550000D03*
X76200000Y-82550000D03*
X78740000Y-80010000D03*
X76200000Y-80010000D03*
X78740000Y-77470000D03*
X76200000Y-77470000D03*
X78740000Y-74930000D03*
X76200000Y-74930000D03*
X78740000Y-72390000D03*
X76200000Y-72390000D03*
X78740000Y-69850000D03*
X76200000Y-69850000D03*
X78740000Y-67310000D03*
X76200000Y-67310000D03*
X78740000Y-64770000D03*
X76200000Y-64770000D03*
X78740000Y-62230000D03*
X76200000Y-62230000D03*
X78740000Y-59690000D03*
X76200000Y-59690000D03*
X78740000Y-57150000D03*
X76200000Y-57150000D03*
X78740000Y-54610000D03*
X76200000Y-54610000D03*
X78740000Y-52070000D03*
X76200000Y-52070000D03*
X78740000Y-49530000D03*
G36*
G01*
X75300000Y-50380000D02*
X75300000Y-48680000D01*
G75*
G02*
X75350000Y-48630000I50000J0D01*
G01*
X77050000Y-48630000D01*
G75*
G02*
X77100000Y-48680000I0J-50000D01*
G01*
X77100000Y-50380000D01*
G75*
G02*
X77050000Y-50430000I-50000J0D01*
G01*
X75350000Y-50430000D01*
G75*
G02*
X75300000Y-50380000I0J50000D01*
G01*
G37*
%TD*%
%TO.C,C6*%
G36*
G01*
X108631134Y-113932000D02*
X107268866Y-113932000D01*
G75*
G02*
X107000000Y-113663134I0J268866D01*
G01*
X107000000Y-112775866D01*
G75*
G02*
X107268866Y-112507000I268866J0D01*
G01*
X108631134Y-112507000D01*
G75*
G02*
X108900000Y-112775866I0J-268866D01*
G01*
X108900000Y-113663134D01*
G75*
G02*
X108631134Y-113932000I-268866J0D01*
G01*
G37*
G36*
G01*
X108631134Y-117057000D02*
X107268866Y-117057000D01*
G75*
G02*
X107000000Y-116788134I0J268866D01*
G01*
X107000000Y-115900866D01*
G75*
G02*
X107268866Y-115632000I268866J0D01*
G01*
X108631134Y-115632000D01*
G75*
G02*
X108900000Y-115900866I0J-268866D01*
G01*
X108900000Y-116788134D01*
G75*
G02*
X108631134Y-117057000I-268866J0D01*
G01*
G37*
%TD*%
%TO.C,C5*%
G36*
G01*
X97977325Y-108069406D02*
X98940594Y-109032675D01*
G75*
G02*
X98940594Y-109412909I-190117J-190117D01*
G01*
X98313201Y-110040302D01*
G75*
G02*
X97932967Y-110040302I-190117J190117D01*
G01*
X96969698Y-109077033D01*
G75*
G02*
X96969698Y-108696799I190117J190117D01*
G01*
X97597091Y-108069406D01*
G75*
G02*
X97977325Y-108069406I190117J-190117D01*
G01*
G37*
G36*
G01*
X100187033Y-105859698D02*
X101150302Y-106822967D01*
G75*
G02*
X101150302Y-107203201I-190117J-190117D01*
G01*
X100522909Y-107830594D01*
G75*
G02*
X100142675Y-107830594I-190117J190117D01*
G01*
X99179406Y-106867325D01*
G75*
G02*
X99179406Y-106487091I190117J190117D01*
G01*
X99806799Y-105859698D01*
G75*
G02*
X100187033Y-105859698I190117J-190117D01*
G01*
G37*
%TD*%
%TO.C,C4*%
G36*
G01*
X104728866Y-115632000D02*
X106091134Y-115632000D01*
G75*
G02*
X106360000Y-115900866I0J-268866D01*
G01*
X106360000Y-116788134D01*
G75*
G02*
X106091134Y-117057000I-268866J0D01*
G01*
X104728866Y-117057000D01*
G75*
G02*
X104460000Y-116788134I0J268866D01*
G01*
X104460000Y-115900866D01*
G75*
G02*
X104728866Y-115632000I268866J0D01*
G01*
G37*
G36*
G01*
X104728866Y-112507000D02*
X106091134Y-112507000D01*
G75*
G02*
X106360000Y-112775866I0J-268866D01*
G01*
X106360000Y-113663134D01*
G75*
G02*
X106091134Y-113932000I-268866J0D01*
G01*
X104728866Y-113932000D01*
G75*
G02*
X104460000Y-113663134I0J268866D01*
G01*
X104460000Y-112775866D01*
G75*
G02*
X104728866Y-112507000I268866J0D01*
G01*
G37*
%TD*%
%TO.C,C3*%
G36*
G01*
X99300659Y-119086610D02*
X98337390Y-118123341D01*
G75*
G02*
X98337390Y-117743107I190117J190117D01*
G01*
X98964783Y-117115714D01*
G75*
G02*
X99345017Y-117115714I190117J-190117D01*
G01*
X100308286Y-118078983D01*
G75*
G02*
X100308286Y-118459217I-190117J-190117D01*
G01*
X99680893Y-119086610D01*
G75*
G02*
X99300659Y-119086610I-190117J190117D01*
G01*
G37*
G36*
G01*
X97090951Y-121296318D02*
X96127682Y-120333049D01*
G75*
G02*
X96127682Y-119952815I190117J190117D01*
G01*
X96755075Y-119325422D01*
G75*
G02*
X97135309Y-119325422I190117J-190117D01*
G01*
X98098578Y-120288691D01*
G75*
G02*
X98098578Y-120668925I-190117J-190117D01*
G01*
X97471185Y-121296318D01*
G75*
G02*
X97090951Y-121296318I-190117J190117D01*
G01*
G37*
%TD*%
%TO.C,C2*%
G36*
G01*
X124255500Y-53513134D02*
X124255500Y-52150866D01*
G75*
G02*
X124524366Y-51882000I268866J0D01*
G01*
X125411634Y-51882000D01*
G75*
G02*
X125680500Y-52150866I0J-268866D01*
G01*
X125680500Y-53513134D01*
G75*
G02*
X125411634Y-53782000I-268866J0D01*
G01*
X124524366Y-53782000D01*
G75*
G02*
X124255500Y-53513134I0J268866D01*
G01*
G37*
G36*
G01*
X121130500Y-53513134D02*
X121130500Y-52150866D01*
G75*
G02*
X121399366Y-51882000I268866J0D01*
G01*
X122286634Y-51882000D01*
G75*
G02*
X122555500Y-52150866I0J-268866D01*
G01*
X122555500Y-53513134D01*
G75*
G02*
X122286634Y-53782000I-268866J0D01*
G01*
X121399366Y-53782000D01*
G75*
G02*
X121130500Y-53513134I0J268866D01*
G01*
G37*
%TD*%
%TO.C,C1*%
G36*
G01*
X103427500Y-53513134D02*
X103427500Y-52150866D01*
G75*
G02*
X103696366Y-51882000I268866J0D01*
G01*
X104583634Y-51882000D01*
G75*
G02*
X104852500Y-52150866I0J-268866D01*
G01*
X104852500Y-53513134D01*
G75*
G02*
X104583634Y-53782000I-268866J0D01*
G01*
X103696366Y-53782000D01*
G75*
G02*
X103427500Y-53513134I0J268866D01*
G01*
G37*
G36*
G01*
X100302500Y-53513134D02*
X100302500Y-52150866D01*
G75*
G02*
X100571366Y-51882000I268866J0D01*
G01*
X101458634Y-51882000D01*
G75*
G02*
X101727500Y-52150866I0J-268866D01*
G01*
X101727500Y-53513134D01*
G75*
G02*
X101458634Y-53782000I-268866J0D01*
G01*
X100571366Y-53782000D01*
G75*
G02*
X100302500Y-53513134I0J268866D01*
G01*
G37*
%TD*%
%TO.C,R8*%
G36*
G01*
X112374230Y-125284000D02*
X113685770Y-125284000D01*
G75*
G02*
X113955000Y-125553230I0J-269230D01*
G01*
X113955000Y-126414770D01*
G75*
G02*
X113685770Y-126684000I-269230J0D01*
G01*
X112374230Y-126684000D01*
G75*
G02*
X112105000Y-126414770I0J269230D01*
G01*
X112105000Y-125553230D01*
G75*
G02*
X112374230Y-125284000I269230J0D01*
G01*
G37*
G36*
G01*
X112374230Y-122184000D02*
X113685770Y-122184000D01*
G75*
G02*
X113955000Y-122453230I0J-269230D01*
G01*
X113955000Y-123314770D01*
G75*
G02*
X113685770Y-123584000I-269230J0D01*
G01*
X112374230Y-123584000D01*
G75*
G02*
X112105000Y-123314770I0J269230D01*
G01*
X112105000Y-122453230D01*
G75*
G02*
X112374230Y-122184000I269230J0D01*
G01*
G37*
%TD*%
%TO.C,R7*%
G36*
G01*
X109834230Y-125336000D02*
X111145770Y-125336000D01*
G75*
G02*
X111415000Y-125605230I0J-269230D01*
G01*
X111415000Y-126466770D01*
G75*
G02*
X111145770Y-126736000I-269230J0D01*
G01*
X109834230Y-126736000D01*
G75*
G02*
X109565000Y-126466770I0J269230D01*
G01*
X109565000Y-125605230D01*
G75*
G02*
X109834230Y-125336000I269230J0D01*
G01*
G37*
G36*
G01*
X109834230Y-122236000D02*
X111145770Y-122236000D01*
G75*
G02*
X111415000Y-122505230I0J-269230D01*
G01*
X111415000Y-123366770D01*
G75*
G02*
X111145770Y-123636000I-269230J0D01*
G01*
X109834230Y-123636000D01*
G75*
G02*
X109565000Y-123366770I0J269230D01*
G01*
X109565000Y-122505230D01*
G75*
G02*
X109834230Y-122236000I269230J0D01*
G01*
G37*
%TD*%
%TO.C,AD1580*%
G36*
G01*
X112450000Y-114500000D02*
X112450000Y-113900000D01*
G75*
G02*
X112500000Y-113850000I50000J0D01*
G01*
X113600000Y-113850000D01*
G75*
G02*
X113650000Y-113900000I0J-50000D01*
G01*
X113650000Y-114500000D01*
G75*
G02*
X113600000Y-114550000I-50000J0D01*
G01*
X112500000Y-114550000D01*
G75*
G02*
X112450000Y-114500000I0J50000D01*
G01*
G37*
G36*
G01*
X110150000Y-115450000D02*
X110150000Y-114850000D01*
G75*
G02*
X110200000Y-114800000I50000J0D01*
G01*
X111300000Y-114800000D01*
G75*
G02*
X111350000Y-114850000I0J-50000D01*
G01*
X111350000Y-115450000D01*
G75*
G02*
X111300000Y-115500000I-50000J0D01*
G01*
X110200000Y-115500000D01*
G75*
G02*
X110150000Y-115450000I0J50000D01*
G01*
G37*
G36*
G01*
X110150000Y-113550000D02*
X110150000Y-112950000D01*
G75*
G02*
X110200000Y-112900000I50000J0D01*
G01*
X111300000Y-112900000D01*
G75*
G02*
X111350000Y-112950000I0J-50000D01*
G01*
X111350000Y-113550000D01*
G75*
G02*
X111300000Y-113600000I-50000J0D01*
G01*
X110200000Y-113600000D01*
G75*
G02*
X110150000Y-113550000I0J50000D01*
G01*
G37*
%TD*%
%TO.C,R6*%
G36*
G01*
X102214230Y-115632000D02*
X103525770Y-115632000D01*
G75*
G02*
X103795000Y-115901230I0J-269230D01*
G01*
X103795000Y-116762770D01*
G75*
G02*
X103525770Y-117032000I-269230J0D01*
G01*
X102214230Y-117032000D01*
G75*
G02*
X101945000Y-116762770I0J269230D01*
G01*
X101945000Y-115901230D01*
G75*
G02*
X102214230Y-115632000I269230J0D01*
G01*
G37*
G36*
G01*
X102214230Y-112532000D02*
X103525770Y-112532000D01*
G75*
G02*
X103795000Y-112801230I0J-269230D01*
G01*
X103795000Y-113662770D01*
G75*
G02*
X103525770Y-113932000I-269230J0D01*
G01*
X102214230Y-113932000D01*
G75*
G02*
X101945000Y-113662770I0J269230D01*
G01*
X101945000Y-112801230D01*
G75*
G02*
X102214230Y-112532000I269230J0D01*
G01*
G37*
%TD*%
%TO.C,R5*%
G36*
G01*
X101822725Y-109416674D02*
X100895326Y-108489275D01*
G75*
G02*
X100895326Y-108108527I190374J190374D01*
G01*
X101504527Y-107499326D01*
G75*
G02*
X101885275Y-107499326I190374J-190374D01*
G01*
X102812674Y-108426725D01*
G75*
G02*
X102812674Y-108807473I-190374J-190374D01*
G01*
X102203473Y-109416674D01*
G75*
G02*
X101822725Y-109416674I-190374J190374D01*
G01*
G37*
G36*
G01*
X99630693Y-111608706D02*
X98703294Y-110681307D01*
G75*
G02*
X98703294Y-110300559I190374J190374D01*
G01*
X99312495Y-109691358D01*
G75*
G02*
X99693243Y-109691358I190374J-190374D01*
G01*
X100620642Y-110618757D01*
G75*
G02*
X100620642Y-110999505I-190374J-190374D01*
G01*
X100011441Y-111608706D01*
G75*
G02*
X99630693Y-111608706I-190374J190374D01*
G01*
G37*
%TD*%
%TO.C,R4*%
G36*
G01*
X106065770Y-123610000D02*
X104754230Y-123610000D01*
G75*
G02*
X104485000Y-123340770I0J269230D01*
G01*
X104485000Y-122479230D01*
G75*
G02*
X104754230Y-122210000I269230J0D01*
G01*
X106065770Y-122210000D01*
G75*
G02*
X106335000Y-122479230I0J-269230D01*
G01*
X106335000Y-123340770D01*
G75*
G02*
X106065770Y-123610000I-269230J0D01*
G01*
G37*
G36*
G01*
X106065770Y-126710000D02*
X104754230Y-126710000D01*
G75*
G02*
X104485000Y-126440770I0J269230D01*
G01*
X104485000Y-125579230D01*
G75*
G02*
X104754230Y-125310000I269230J0D01*
G01*
X106065770Y-125310000D01*
G75*
G02*
X106335000Y-125579230I0J-269230D01*
G01*
X106335000Y-126440770D01*
G75*
G02*
X106065770Y-126710000I-269230J0D01*
G01*
G37*
%TD*%
%TO.C,R3*%
G36*
G01*
X108605770Y-123610000D02*
X107294230Y-123610000D01*
G75*
G02*
X107025000Y-123340770I0J269230D01*
G01*
X107025000Y-122479230D01*
G75*
G02*
X107294230Y-122210000I269230J0D01*
G01*
X108605770Y-122210000D01*
G75*
G02*
X108875000Y-122479230I0J-269230D01*
G01*
X108875000Y-123340770D01*
G75*
G02*
X108605770Y-123610000I-269230J0D01*
G01*
G37*
G36*
G01*
X108605770Y-126710000D02*
X107294230Y-126710000D01*
G75*
G02*
X107025000Y-126440770I0J269230D01*
G01*
X107025000Y-125579230D01*
G75*
G02*
X107294230Y-125310000I269230J0D01*
G01*
X108605770Y-125310000D01*
G75*
G02*
X108875000Y-125579230I0J-269230D01*
G01*
X108875000Y-126440770D01*
G75*
G02*
X108605770Y-126710000I-269230J0D01*
G01*
G37*
%TD*%
%TO.C,R2*%
G36*
G01*
X102214230Y-125310000D02*
X103525770Y-125310000D01*
G75*
G02*
X103795000Y-125579230I0J-269230D01*
G01*
X103795000Y-126440770D01*
G75*
G02*
X103525770Y-126710000I-269230J0D01*
G01*
X102214230Y-126710000D01*
G75*
G02*
X101945000Y-126440770I0J269230D01*
G01*
X101945000Y-125579230D01*
G75*
G02*
X102214230Y-125310000I269230J0D01*
G01*
G37*
G36*
G01*
X102214230Y-122210000D02*
X103525770Y-122210000D01*
G75*
G02*
X103795000Y-122479230I0J-269230D01*
G01*
X103795000Y-123340770D01*
G75*
G02*
X103525770Y-123610000I-269230J0D01*
G01*
X102214230Y-123610000D01*
G75*
G02*
X101945000Y-123340770I0J269230D01*
G01*
X101945000Y-122479230D01*
G75*
G02*
X102214230Y-122210000I269230J0D01*
G01*
G37*
%TD*%
%TO.C,R1*%
G36*
G01*
X105804000Y-109326230D02*
X105804000Y-110637770D01*
G75*
G02*
X105534770Y-110907000I-269230J0D01*
G01*
X104673230Y-110907000D01*
G75*
G02*
X104404000Y-110637770I0J269230D01*
G01*
X104404000Y-109326230D01*
G75*
G02*
X104673230Y-109057000I269230J0D01*
G01*
X105534770Y-109057000D01*
G75*
G02*
X105804000Y-109326230I0J-269230D01*
G01*
G37*
G36*
G01*
X108904000Y-109326230D02*
X108904000Y-110637770D01*
G75*
G02*
X108634770Y-110907000I-269230J0D01*
G01*
X107773230Y-110907000D01*
G75*
G02*
X107504000Y-110637770I0J269230D01*
G01*
X107504000Y-109326230D01*
G75*
G02*
X107773230Y-109057000I269230J0D01*
G01*
X108634770Y-109057000D01*
G75*
G02*
X108904000Y-109326230I0J-269230D01*
G01*
G37*
%TD*%
%TO.C,IC1*%
G36*
G01*
X91846587Y-109721484D02*
X92871891Y-108696180D01*
G75*
G02*
X92942601Y-108696180I35355J-35355D01*
G01*
X93154733Y-108908312D01*
G75*
G02*
X93154733Y-108979022I-35355J-35355D01*
G01*
X92129429Y-110004326D01*
G75*
G02*
X92058719Y-110004326I-35355J35355D01*
G01*
X91846587Y-109792194D01*
G75*
G02*
X91846587Y-109721484I35355J35355D01*
G01*
G37*
G36*
G01*
X92200141Y-110075037D02*
X93225445Y-109049733D01*
G75*
G02*
X93296155Y-109049733I35355J-35355D01*
G01*
X93508287Y-109261865D01*
G75*
G02*
X93508287Y-109332575I-35355J-35355D01*
G01*
X92482983Y-110357879D01*
G75*
G02*
X92412273Y-110357879I-35355J35355D01*
G01*
X92200141Y-110145747D01*
G75*
G02*
X92200141Y-110075037I35355J35355D01*
G01*
G37*
G36*
G01*
X92553694Y-110428590D02*
X93578998Y-109403286D01*
G75*
G02*
X93649708Y-109403286I35355J-35355D01*
G01*
X93861840Y-109615418D01*
G75*
G02*
X93861840Y-109686128I-35355J-35355D01*
G01*
X92836536Y-110711432D01*
G75*
G02*
X92765826Y-110711432I-35355J35355D01*
G01*
X92553694Y-110499300D01*
G75*
G02*
X92553694Y-110428590I35355J35355D01*
G01*
G37*
G36*
G01*
X92907247Y-110782144D02*
X93932551Y-109756840D01*
G75*
G02*
X94003261Y-109756840I35355J-35355D01*
G01*
X94215393Y-109968972D01*
G75*
G02*
X94215393Y-110039682I-35355J-35355D01*
G01*
X93190089Y-111064986D01*
G75*
G02*
X93119379Y-111064986I-35355J35355D01*
G01*
X92907247Y-110852854D01*
G75*
G02*
X92907247Y-110782144I35355J35355D01*
G01*
G37*
G36*
G01*
X93260801Y-111135697D02*
X94286105Y-110110393D01*
G75*
G02*
X94356815Y-110110393I35355J-35355D01*
G01*
X94568947Y-110322525D01*
G75*
G02*
X94568947Y-110393235I-35355J-35355D01*
G01*
X93543643Y-111418539D01*
G75*
G02*
X93472933Y-111418539I-35355J35355D01*
G01*
X93260801Y-111206407D01*
G75*
G02*
X93260801Y-111135697I35355J35355D01*
G01*
G37*
G36*
G01*
X93614354Y-111489250D02*
X94639658Y-110463946D01*
G75*
G02*
X94710368Y-110463946I35355J-35355D01*
G01*
X94922500Y-110676078D01*
G75*
G02*
X94922500Y-110746788I-35355J-35355D01*
G01*
X93897196Y-111772092D01*
G75*
G02*
X93826486Y-111772092I-35355J35355D01*
G01*
X93614354Y-111559960D01*
G75*
G02*
X93614354Y-111489250I35355J35355D01*
G01*
G37*
G36*
G01*
X93967908Y-111842804D02*
X94993212Y-110817500D01*
G75*
G02*
X95063922Y-110817500I35355J-35355D01*
G01*
X95276054Y-111029632D01*
G75*
G02*
X95276054Y-111100342I-35355J-35355D01*
G01*
X94250750Y-112125646D01*
G75*
G02*
X94180040Y-112125646I-35355J35355D01*
G01*
X93967908Y-111913514D01*
G75*
G02*
X93967908Y-111842804I35355J35355D01*
G01*
G37*
G36*
G01*
X94321461Y-112196357D02*
X95346765Y-111171053D01*
G75*
G02*
X95417475Y-111171053I35355J-35355D01*
G01*
X95629607Y-111383185D01*
G75*
G02*
X95629607Y-111453895I-35355J-35355D01*
G01*
X94604303Y-112479199D01*
G75*
G02*
X94533593Y-112479199I-35355J35355D01*
G01*
X94321461Y-112267067D01*
G75*
G02*
X94321461Y-112196357I35355J35355D01*
G01*
G37*
G36*
G01*
X94675014Y-112549911D02*
X95700318Y-111524607D01*
G75*
G02*
X95771028Y-111524607I35355J-35355D01*
G01*
X95983160Y-111736739D01*
G75*
G02*
X95983160Y-111807449I-35355J-35355D01*
G01*
X94957856Y-112832753D01*
G75*
G02*
X94887146Y-112832753I-35355J35355D01*
G01*
X94675014Y-112620621D01*
G75*
G02*
X94675014Y-112549911I35355J35355D01*
G01*
G37*
G36*
G01*
X95028568Y-112903464D02*
X96053872Y-111878160D01*
G75*
G02*
X96124582Y-111878160I35355J-35355D01*
G01*
X96336714Y-112090292D01*
G75*
G02*
X96336714Y-112161002I-35355J-35355D01*
G01*
X95311410Y-113186306D01*
G75*
G02*
X95240700Y-113186306I-35355J35355D01*
G01*
X95028568Y-112974174D01*
G75*
G02*
X95028568Y-112903464I35355J35355D01*
G01*
G37*
G36*
G01*
X95382121Y-113257017D02*
X96407425Y-112231713D01*
G75*
G02*
X96478135Y-112231713I35355J-35355D01*
G01*
X96690267Y-112443845D01*
G75*
G02*
X96690267Y-112514555I-35355J-35355D01*
G01*
X95664963Y-113539859D01*
G75*
G02*
X95594253Y-113539859I-35355J35355D01*
G01*
X95382121Y-113327727D01*
G75*
G02*
X95382121Y-113257017I35355J35355D01*
G01*
G37*
G36*
G01*
X95735674Y-113610571D02*
X96760978Y-112585267D01*
G75*
G02*
X96831688Y-112585267I35355J-35355D01*
G01*
X97043820Y-112797399D01*
G75*
G02*
X97043820Y-112868109I-35355J-35355D01*
G01*
X96018516Y-113893413D01*
G75*
G02*
X95947806Y-113893413I-35355J35355D01*
G01*
X95735674Y-113681281D01*
G75*
G02*
X95735674Y-113610571I35355J35355D01*
G01*
G37*
G36*
G01*
X95735674Y-114918719D02*
X95947806Y-114706587D01*
G75*
G02*
X96018516Y-114706587I35355J-35355D01*
G01*
X97043820Y-115731891D01*
G75*
G02*
X97043820Y-115802601I-35355J-35355D01*
G01*
X96831688Y-116014733D01*
G75*
G02*
X96760978Y-116014733I-35355J35355D01*
G01*
X95735674Y-114989429D01*
G75*
G02*
X95735674Y-114918719I35355J35355D01*
G01*
G37*
G36*
G01*
X95382121Y-115272273D02*
X95594253Y-115060141D01*
G75*
G02*
X95664963Y-115060141I35355J-35355D01*
G01*
X96690267Y-116085445D01*
G75*
G02*
X96690267Y-116156155I-35355J-35355D01*
G01*
X96478135Y-116368287D01*
G75*
G02*
X96407425Y-116368287I-35355J35355D01*
G01*
X95382121Y-115342983D01*
G75*
G02*
X95382121Y-115272273I35355J35355D01*
G01*
G37*
G36*
G01*
X95028568Y-115625826D02*
X95240700Y-115413694D01*
G75*
G02*
X95311410Y-115413694I35355J-35355D01*
G01*
X96336714Y-116438998D01*
G75*
G02*
X96336714Y-116509708I-35355J-35355D01*
G01*
X96124582Y-116721840D01*
G75*
G02*
X96053872Y-116721840I-35355J35355D01*
G01*
X95028568Y-115696536D01*
G75*
G02*
X95028568Y-115625826I35355J35355D01*
G01*
G37*
G36*
G01*
X94675014Y-115979379D02*
X94887146Y-115767247D01*
G75*
G02*
X94957856Y-115767247I35355J-35355D01*
G01*
X95983160Y-116792551D01*
G75*
G02*
X95983160Y-116863261I-35355J-35355D01*
G01*
X95771028Y-117075393D01*
G75*
G02*
X95700318Y-117075393I-35355J35355D01*
G01*
X94675014Y-116050089D01*
G75*
G02*
X94675014Y-115979379I35355J35355D01*
G01*
G37*
G36*
G01*
X94321461Y-116332933D02*
X94533593Y-116120801D01*
G75*
G02*
X94604303Y-116120801I35355J-35355D01*
G01*
X95629607Y-117146105D01*
G75*
G02*
X95629607Y-117216815I-35355J-35355D01*
G01*
X95417475Y-117428947D01*
G75*
G02*
X95346765Y-117428947I-35355J35355D01*
G01*
X94321461Y-116403643D01*
G75*
G02*
X94321461Y-116332933I35355J35355D01*
G01*
G37*
G36*
G01*
X93967908Y-116686486D02*
X94180040Y-116474354D01*
G75*
G02*
X94250750Y-116474354I35355J-35355D01*
G01*
X95276054Y-117499658D01*
G75*
G02*
X95276054Y-117570368I-35355J-35355D01*
G01*
X95063922Y-117782500D01*
G75*
G02*
X94993212Y-117782500I-35355J35355D01*
G01*
X93967908Y-116757196D01*
G75*
G02*
X93967908Y-116686486I35355J35355D01*
G01*
G37*
G36*
G01*
X93614354Y-117040040D02*
X93826486Y-116827908D01*
G75*
G02*
X93897196Y-116827908I35355J-35355D01*
G01*
X94922500Y-117853212D01*
G75*
G02*
X94922500Y-117923922I-35355J-35355D01*
G01*
X94710368Y-118136054D01*
G75*
G02*
X94639658Y-118136054I-35355J35355D01*
G01*
X93614354Y-117110750D01*
G75*
G02*
X93614354Y-117040040I35355J35355D01*
G01*
G37*
G36*
G01*
X93260801Y-117393593D02*
X93472933Y-117181461D01*
G75*
G02*
X93543643Y-117181461I35355J-35355D01*
G01*
X94568947Y-118206765D01*
G75*
G02*
X94568947Y-118277475I-35355J-35355D01*
G01*
X94356815Y-118489607D01*
G75*
G02*
X94286105Y-118489607I-35355J35355D01*
G01*
X93260801Y-117464303D01*
G75*
G02*
X93260801Y-117393593I35355J35355D01*
G01*
G37*
G36*
G01*
X92907247Y-117747146D02*
X93119379Y-117535014D01*
G75*
G02*
X93190089Y-117535014I35355J-35355D01*
G01*
X94215393Y-118560318D01*
G75*
G02*
X94215393Y-118631028I-35355J-35355D01*
G01*
X94003261Y-118843160D01*
G75*
G02*
X93932551Y-118843160I-35355J35355D01*
G01*
X92907247Y-117817856D01*
G75*
G02*
X92907247Y-117747146I35355J35355D01*
G01*
G37*
G36*
G01*
X92553694Y-118100700D02*
X92765826Y-117888568D01*
G75*
G02*
X92836536Y-117888568I35355J-35355D01*
G01*
X93861840Y-118913872D01*
G75*
G02*
X93861840Y-118984582I-35355J-35355D01*
G01*
X93649708Y-119196714D01*
G75*
G02*
X93578998Y-119196714I-35355J35355D01*
G01*
X92553694Y-118171410D01*
G75*
G02*
X92553694Y-118100700I35355J35355D01*
G01*
G37*
G36*
G01*
X92200141Y-118454253D02*
X92412273Y-118242121D01*
G75*
G02*
X92482983Y-118242121I35355J-35355D01*
G01*
X93508287Y-119267425D01*
G75*
G02*
X93508287Y-119338135I-35355J-35355D01*
G01*
X93296155Y-119550267D01*
G75*
G02*
X93225445Y-119550267I-35355J35355D01*
G01*
X92200141Y-118524963D01*
G75*
G02*
X92200141Y-118454253I35355J35355D01*
G01*
G37*
G36*
G01*
X91846587Y-118807806D02*
X92058719Y-118595674D01*
G75*
G02*
X92129429Y-118595674I35355J-35355D01*
G01*
X93154733Y-119620978D01*
G75*
G02*
X93154733Y-119691688I-35355J-35355D01*
G01*
X92942601Y-119903820D01*
G75*
G02*
X92871891Y-119903820I-35355J35355D01*
G01*
X91846587Y-118878516D01*
G75*
G02*
X91846587Y-118807806I35355J35355D01*
G01*
G37*
G36*
G01*
X89725267Y-119620978D02*
X90750571Y-118595674D01*
G75*
G02*
X90821281Y-118595674I35355J-35355D01*
G01*
X91033413Y-118807806D01*
G75*
G02*
X91033413Y-118878516I-35355J-35355D01*
G01*
X90008109Y-119903820D01*
G75*
G02*
X89937399Y-119903820I-35355J35355D01*
G01*
X89725267Y-119691688D01*
G75*
G02*
X89725267Y-119620978I35355J35355D01*
G01*
G37*
G36*
G01*
X89371713Y-119267425D02*
X90397017Y-118242121D01*
G75*
G02*
X90467727Y-118242121I35355J-35355D01*
G01*
X90679859Y-118454253D01*
G75*
G02*
X90679859Y-118524963I-35355J-35355D01*
G01*
X89654555Y-119550267D01*
G75*
G02*
X89583845Y-119550267I-35355J35355D01*
G01*
X89371713Y-119338135D01*
G75*
G02*
X89371713Y-119267425I35355J35355D01*
G01*
G37*
G36*
G01*
X89018160Y-118913872D02*
X90043464Y-117888568D01*
G75*
G02*
X90114174Y-117888568I35355J-35355D01*
G01*
X90326306Y-118100700D01*
G75*
G02*
X90326306Y-118171410I-35355J-35355D01*
G01*
X89301002Y-119196714D01*
G75*
G02*
X89230292Y-119196714I-35355J35355D01*
G01*
X89018160Y-118984582D01*
G75*
G02*
X89018160Y-118913872I35355J35355D01*
G01*
G37*
G36*
G01*
X88664607Y-118560318D02*
X89689911Y-117535014D01*
G75*
G02*
X89760621Y-117535014I35355J-35355D01*
G01*
X89972753Y-117747146D01*
G75*
G02*
X89972753Y-117817856I-35355J-35355D01*
G01*
X88947449Y-118843160D01*
G75*
G02*
X88876739Y-118843160I-35355J35355D01*
G01*
X88664607Y-118631028D01*
G75*
G02*
X88664607Y-118560318I35355J35355D01*
G01*
G37*
G36*
G01*
X88311053Y-118206765D02*
X89336357Y-117181461D01*
G75*
G02*
X89407067Y-117181461I35355J-35355D01*
G01*
X89619199Y-117393593D01*
G75*
G02*
X89619199Y-117464303I-35355J-35355D01*
G01*
X88593895Y-118489607D01*
G75*
G02*
X88523185Y-118489607I-35355J35355D01*
G01*
X88311053Y-118277475D01*
G75*
G02*
X88311053Y-118206765I35355J35355D01*
G01*
G37*
G36*
G01*
X87957500Y-117853212D02*
X88982804Y-116827908D01*
G75*
G02*
X89053514Y-116827908I35355J-35355D01*
G01*
X89265646Y-117040040D01*
G75*
G02*
X89265646Y-117110750I-35355J-35355D01*
G01*
X88240342Y-118136054D01*
G75*
G02*
X88169632Y-118136054I-35355J35355D01*
G01*
X87957500Y-117923922D01*
G75*
G02*
X87957500Y-117853212I35355J35355D01*
G01*
G37*
G36*
G01*
X87603946Y-117499658D02*
X88629250Y-116474354D01*
G75*
G02*
X88699960Y-116474354I35355J-35355D01*
G01*
X88912092Y-116686486D01*
G75*
G02*
X88912092Y-116757196I-35355J-35355D01*
G01*
X87886788Y-117782500D01*
G75*
G02*
X87816078Y-117782500I-35355J35355D01*
G01*
X87603946Y-117570368D01*
G75*
G02*
X87603946Y-117499658I35355J35355D01*
G01*
G37*
G36*
G01*
X87250393Y-117146105D02*
X88275697Y-116120801D01*
G75*
G02*
X88346407Y-116120801I35355J-35355D01*
G01*
X88558539Y-116332933D01*
G75*
G02*
X88558539Y-116403643I-35355J-35355D01*
G01*
X87533235Y-117428947D01*
G75*
G02*
X87462525Y-117428947I-35355J35355D01*
G01*
X87250393Y-117216815D01*
G75*
G02*
X87250393Y-117146105I35355J35355D01*
G01*
G37*
G36*
G01*
X86896840Y-116792551D02*
X87922144Y-115767247D01*
G75*
G02*
X87992854Y-115767247I35355J-35355D01*
G01*
X88204986Y-115979379D01*
G75*
G02*
X88204986Y-116050089I-35355J-35355D01*
G01*
X87179682Y-117075393D01*
G75*
G02*
X87108972Y-117075393I-35355J35355D01*
G01*
X86896840Y-116863261D01*
G75*
G02*
X86896840Y-116792551I35355J35355D01*
G01*
G37*
G36*
G01*
X86543286Y-116438998D02*
X87568590Y-115413694D01*
G75*
G02*
X87639300Y-115413694I35355J-35355D01*
G01*
X87851432Y-115625826D01*
G75*
G02*
X87851432Y-115696536I-35355J-35355D01*
G01*
X86826128Y-116721840D01*
G75*
G02*
X86755418Y-116721840I-35355J35355D01*
G01*
X86543286Y-116509708D01*
G75*
G02*
X86543286Y-116438998I35355J35355D01*
G01*
G37*
G36*
G01*
X86189733Y-116085445D02*
X87215037Y-115060141D01*
G75*
G02*
X87285747Y-115060141I35355J-35355D01*
G01*
X87497879Y-115272273D01*
G75*
G02*
X87497879Y-115342983I-35355J-35355D01*
G01*
X86472575Y-116368287D01*
G75*
G02*
X86401865Y-116368287I-35355J35355D01*
G01*
X86189733Y-116156155D01*
G75*
G02*
X86189733Y-116085445I35355J35355D01*
G01*
G37*
G36*
G01*
X85836180Y-115731891D02*
X86861484Y-114706587D01*
G75*
G02*
X86932194Y-114706587I35355J-35355D01*
G01*
X87144326Y-114918719D01*
G75*
G02*
X87144326Y-114989429I-35355J-35355D01*
G01*
X86119022Y-116014733D01*
G75*
G02*
X86048312Y-116014733I-35355J35355D01*
G01*
X85836180Y-115802601D01*
G75*
G02*
X85836180Y-115731891I35355J35355D01*
G01*
G37*
G36*
G01*
X85836180Y-112797399D02*
X86048312Y-112585267D01*
G75*
G02*
X86119022Y-112585267I35355J-35355D01*
G01*
X87144326Y-113610571D01*
G75*
G02*
X87144326Y-113681281I-35355J-35355D01*
G01*
X86932194Y-113893413D01*
G75*
G02*
X86861484Y-113893413I-35355J35355D01*
G01*
X85836180Y-112868109D01*
G75*
G02*
X85836180Y-112797399I35355J35355D01*
G01*
G37*
G36*
G01*
X86189733Y-112443845D02*
X86401865Y-112231713D01*
G75*
G02*
X86472575Y-112231713I35355J-35355D01*
G01*
X87497879Y-113257017D01*
G75*
G02*
X87497879Y-113327727I-35355J-35355D01*
G01*
X87285747Y-113539859D01*
G75*
G02*
X87215037Y-113539859I-35355J35355D01*
G01*
X86189733Y-112514555D01*
G75*
G02*
X86189733Y-112443845I35355J35355D01*
G01*
G37*
G36*
G01*
X86543286Y-112090292D02*
X86755418Y-111878160D01*
G75*
G02*
X86826128Y-111878160I35355J-35355D01*
G01*
X87851432Y-112903464D01*
G75*
G02*
X87851432Y-112974174I-35355J-35355D01*
G01*
X87639300Y-113186306D01*
G75*
G02*
X87568590Y-113186306I-35355J35355D01*
G01*
X86543286Y-112161002D01*
G75*
G02*
X86543286Y-112090292I35355J35355D01*
G01*
G37*
G36*
G01*
X86896840Y-111736739D02*
X87108972Y-111524607D01*
G75*
G02*
X87179682Y-111524607I35355J-35355D01*
G01*
X88204986Y-112549911D01*
G75*
G02*
X88204986Y-112620621I-35355J-35355D01*
G01*
X87992854Y-112832753D01*
G75*
G02*
X87922144Y-112832753I-35355J35355D01*
G01*
X86896840Y-111807449D01*
G75*
G02*
X86896840Y-111736739I35355J35355D01*
G01*
G37*
G36*
G01*
X87250393Y-111383185D02*
X87462525Y-111171053D01*
G75*
G02*
X87533235Y-111171053I35355J-35355D01*
G01*
X88558539Y-112196357D01*
G75*
G02*
X88558539Y-112267067I-35355J-35355D01*
G01*
X88346407Y-112479199D01*
G75*
G02*
X88275697Y-112479199I-35355J35355D01*
G01*
X87250393Y-111453895D01*
G75*
G02*
X87250393Y-111383185I35355J35355D01*
G01*
G37*
G36*
G01*
X87603946Y-111029632D02*
X87816078Y-110817500D01*
G75*
G02*
X87886788Y-110817500I35355J-35355D01*
G01*
X88912092Y-111842804D01*
G75*
G02*
X88912092Y-111913514I-35355J-35355D01*
G01*
X88699960Y-112125646D01*
G75*
G02*
X88629250Y-112125646I-35355J35355D01*
G01*
X87603946Y-111100342D01*
G75*
G02*
X87603946Y-111029632I35355J35355D01*
G01*
G37*
G36*
G01*
X87957500Y-110676078D02*
X88169632Y-110463946D01*
G75*
G02*
X88240342Y-110463946I35355J-35355D01*
G01*
X89265646Y-111489250D01*
G75*
G02*
X89265646Y-111559960I-35355J-35355D01*
G01*
X89053514Y-111772092D01*
G75*
G02*
X88982804Y-111772092I-35355J35355D01*
G01*
X87957500Y-110746788D01*
G75*
G02*
X87957500Y-110676078I35355J35355D01*
G01*
G37*
G36*
G01*
X88311053Y-110322525D02*
X88523185Y-110110393D01*
G75*
G02*
X88593895Y-110110393I35355J-35355D01*
G01*
X89619199Y-111135697D01*
G75*
G02*
X89619199Y-111206407I-35355J-35355D01*
G01*
X89407067Y-111418539D01*
G75*
G02*
X89336357Y-111418539I-35355J35355D01*
G01*
X88311053Y-110393235D01*
G75*
G02*
X88311053Y-110322525I35355J35355D01*
G01*
G37*
G36*
G01*
X88664607Y-109968972D02*
X88876739Y-109756840D01*
G75*
G02*
X88947449Y-109756840I35355J-35355D01*
G01*
X89972753Y-110782144D01*
G75*
G02*
X89972753Y-110852854I-35355J-35355D01*
G01*
X89760621Y-111064986D01*
G75*
G02*
X89689911Y-111064986I-35355J35355D01*
G01*
X88664607Y-110039682D01*
G75*
G02*
X88664607Y-109968972I35355J35355D01*
G01*
G37*
G36*
G01*
X89018160Y-109615418D02*
X89230292Y-109403286D01*
G75*
G02*
X89301002Y-109403286I35355J-35355D01*
G01*
X90326306Y-110428590D01*
G75*
G02*
X90326306Y-110499300I-35355J-35355D01*
G01*
X90114174Y-110711432D01*
G75*
G02*
X90043464Y-110711432I-35355J35355D01*
G01*
X89018160Y-109686128D01*
G75*
G02*
X89018160Y-109615418I35355J35355D01*
G01*
G37*
G36*
G01*
X89371713Y-109261865D02*
X89583845Y-109049733D01*
G75*
G02*
X89654555Y-109049733I35355J-35355D01*
G01*
X90679859Y-110075037D01*
G75*
G02*
X90679859Y-110145747I-35355J-35355D01*
G01*
X90467727Y-110357879D01*
G75*
G02*
X90397017Y-110357879I-35355J35355D01*
G01*
X89371713Y-109332575D01*
G75*
G02*
X89371713Y-109261865I35355J35355D01*
G01*
G37*
G36*
G01*
X89725267Y-108908312D02*
X89937399Y-108696180D01*
G75*
G02*
X90008109Y-108696180I35355J-35355D01*
G01*
X91033413Y-109721484D01*
G75*
G02*
X91033413Y-109792194I-35355J-35355D01*
G01*
X90821281Y-110004326D01*
G75*
G02*
X90750571Y-110004326I-35355J35355D01*
G01*
X89725267Y-108979022D01*
G75*
G02*
X89725267Y-108908312I35355J35355D01*
G01*
G37*
%TD*%
D15*
%TO.C,RAM2*%
X127000000Y-55880000D03*
X111760000Y-93980000D03*
X127000000Y-58420000D03*
X111760000Y-91440000D03*
X127000000Y-60960000D03*
X111760000Y-88900000D03*
X127000000Y-63500000D03*
X111760000Y-86360000D03*
X127000000Y-66040000D03*
X111760000Y-83820000D03*
X127000000Y-68580000D03*
X111760000Y-81280000D03*
X127000000Y-71120000D03*
X111760000Y-78740000D03*
X127000000Y-73660000D03*
X111760000Y-76200000D03*
X127000000Y-76200000D03*
X111760000Y-73660000D03*
X127000000Y-78740000D03*
X111760000Y-71120000D03*
X127000000Y-81280000D03*
X111760000Y-68580000D03*
X127000000Y-83820000D03*
X111760000Y-66040000D03*
X127000000Y-86360000D03*
X111760000Y-63500000D03*
X127000000Y-88900000D03*
X111760000Y-60960000D03*
X127000000Y-91440000D03*
X111760000Y-58420000D03*
X127000000Y-93980000D03*
G36*
G01*
X110910000Y-56680000D02*
X110910000Y-55080000D01*
G75*
G02*
X110960000Y-55030000I50000J0D01*
G01*
X112560000Y-55030000D01*
G75*
G02*
X112610000Y-55080000I0J-50000D01*
G01*
X112610000Y-56680000D01*
G75*
G02*
X112560000Y-56730000I-50000J0D01*
G01*
X110960000Y-56730000D01*
G75*
G02*
X110910000Y-56680000I0J50000D01*
G01*
G37*
%TD*%
%TO.C,RAM1*%
X106172000Y-55880000D03*
X90932000Y-93980000D03*
X106172000Y-58420000D03*
X90932000Y-91440000D03*
X106172000Y-60960000D03*
X90932000Y-88900000D03*
X106172000Y-63500000D03*
X90932000Y-86360000D03*
X106172000Y-66040000D03*
X90932000Y-83820000D03*
X106172000Y-68580000D03*
X90932000Y-81280000D03*
X106172000Y-71120000D03*
X90932000Y-78740000D03*
X106172000Y-73660000D03*
X90932000Y-76200000D03*
X106172000Y-76200000D03*
X90932000Y-73660000D03*
X106172000Y-78740000D03*
X90932000Y-71120000D03*
X106172000Y-81280000D03*
X90932000Y-68580000D03*
X106172000Y-83820000D03*
X90932000Y-66040000D03*
X106172000Y-86360000D03*
X90932000Y-63500000D03*
X106172000Y-88900000D03*
X90932000Y-60960000D03*
X106172000Y-91440000D03*
X90932000Y-58420000D03*
X106172000Y-93980000D03*
G36*
G01*
X90082000Y-56680000D02*
X90082000Y-55080000D01*
G75*
G02*
X90132000Y-55030000I50000J0D01*
G01*
X91732000Y-55030000D01*
G75*
G02*
X91782000Y-55080000I0J-50000D01*
G01*
X91782000Y-56680000D01*
G75*
G02*
X91732000Y-56730000I-50000J0D01*
G01*
X90132000Y-56730000D01*
G75*
G02*
X90082000Y-56680000I0J50000D01*
G01*
G37*
%TD*%
M02*
