%TF.GenerationSoftware,KiCad,Pcbnew,(5.1.9)-1*%
%TF.CreationDate,2021-04-02T06:19:05+03:00*%
%TF.ProjectId,fpga_hat,66706761-5f68-4617-942e-6b696361645f,rev?*%
%TF.SameCoordinates,Original*%
%TF.FileFunction,Legend,Top*%
%TF.FilePolarity,Positive*%
%FSLAX46Y46*%
G04 Gerber Fmt 4.6, Leading zero omitted, Abs format (unit mm)*
G04 Created by KiCad (PCBNEW (5.1.9)-1) date 2021-04-02 06:19:05*
%MOMM*%
%LPD*%
G01*
G04 APERTURE LIST*
%ADD10C,0.120000*%
%ADD11C,0.152400*%
%ADD12C,0.200000*%
%ADD13C,0.100000*%
%ADD14C,0.254000*%
%ADD15C,0.150000*%
%ADD16C,0.112500*%
%ADD17C,0.125000*%
G04 APERTURE END LIST*
D10*
%TO.C,VideoOut1*%
X101500000Y-131898675D02*
X101250000Y-131465662D01*
X101750000Y-131465662D02*
X101500000Y-131898675D01*
X101250000Y-131465662D02*
X101750000Y-131465662D01*
X112670000Y-132360000D02*
X112670000Y-146250000D01*
X81700000Y-132360000D02*
X112670000Y-132360000D01*
X81700000Y-146250000D02*
X81700000Y-132360000D01*
D11*
%TO.C,VREF1*%
X112611200Y-113590400D02*
X112611200Y-112676000D01*
X111696800Y-115724000D02*
X112611200Y-115724000D01*
X112611200Y-115724000D02*
X112611200Y-114809600D01*
X112611200Y-112676000D02*
X111696800Y-112676000D01*
X111188800Y-113869800D02*
X111188800Y-114530200D01*
D10*
%TO.C,J1*%
X116760258Y-130189500D02*
X116285742Y-130189500D01*
X116760258Y-129144500D02*
X116285742Y-129144500D01*
%TO.C,J0*%
X116760258Y-131967500D02*
X116285742Y-131967500D01*
X116760258Y-130922500D02*
X116285742Y-130922500D01*
D12*
%TO.C,IC3*%
X128180000Y-103142000D02*
X128180000Y-106342000D01*
X128180000Y-106342000D02*
X123280000Y-106342000D01*
X123280000Y-106342000D02*
X123280000Y-103142000D01*
X123280000Y-103142000D02*
X128180000Y-103142000D01*
X128335000Y-101267000D02*
X128335000Y-102792000D01*
D11*
%TO.C,IC1*%
X91709408Y-109468622D02*
X91440000Y-109199215D01*
X96271378Y-114569408D02*
X96540785Y-114300000D01*
X91170592Y-119131378D02*
X91440000Y-119400785D01*
X91170592Y-110115201D02*
X91709408Y-110115201D01*
X86339215Y-114300000D02*
X86608622Y-114569408D01*
X91440000Y-119400785D02*
X91709408Y-119131378D01*
X96540785Y-114300000D02*
X96271378Y-114030592D01*
X91440000Y-109199215D02*
X91170592Y-109468622D01*
X86608622Y-114030592D02*
X86339215Y-114300000D01*
D13*
%TO.C,AudioR1*%
X116881000Y-142993000D02*
X116031000Y-142993000D01*
X116881000Y-142993000D02*
X116881000Y-142993000D01*
X116031000Y-142993000D02*
X116881000Y-142993000D01*
X116031000Y-142993000D02*
X116031000Y-142993000D01*
X116031000Y-132993000D02*
X118491000Y-132993000D01*
X116031000Y-132993000D02*
X116031000Y-132993000D01*
X118491000Y-132993000D02*
X116031000Y-132993000D01*
X118491000Y-132993000D02*
X118491000Y-132993000D01*
X123571000Y-132993000D02*
X126111000Y-132993000D01*
X123571000Y-132993000D02*
X123571000Y-132993000D01*
X126111000Y-132993000D02*
X123571000Y-132993000D01*
X126111000Y-132993000D02*
X126111000Y-132993000D01*
X126031000Y-142993000D02*
X125181000Y-142993000D01*
X126031000Y-142993000D02*
X126031000Y-142993000D01*
X125181000Y-142993000D02*
X126031000Y-142993000D01*
X125181000Y-142993000D02*
X125181000Y-142993000D01*
X116031000Y-132993000D02*
X116031000Y-132993000D01*
X116031000Y-142993000D02*
X116031000Y-132993000D01*
X116031000Y-142993000D02*
X116031000Y-142993000D01*
X116031000Y-132993000D02*
X116031000Y-142993000D01*
X126031000Y-142993000D02*
X126031000Y-142993000D01*
X126031000Y-132993000D02*
X126031000Y-142993000D01*
X126031000Y-132993000D02*
X126031000Y-132993000D01*
X126031000Y-142993000D02*
X126031000Y-132993000D01*
X125181000Y-152493000D02*
X116881000Y-152493000D01*
X125181000Y-142993000D02*
X125181000Y-152493000D01*
X116881000Y-142993000D02*
X125181000Y-142993000D01*
X116881000Y-152493000D02*
X116881000Y-142993000D01*
%TO.C,AudioL1*%
X129835000Y-142993000D02*
X128985000Y-142993000D01*
X129835000Y-142993000D02*
X129835000Y-142993000D01*
X128985000Y-142993000D02*
X129835000Y-142993000D01*
X128985000Y-142993000D02*
X128985000Y-142993000D01*
X128985000Y-132993000D02*
X131445000Y-132993000D01*
X128985000Y-132993000D02*
X128985000Y-132993000D01*
X131445000Y-132993000D02*
X128985000Y-132993000D01*
X131445000Y-132993000D02*
X131445000Y-132993000D01*
X136525000Y-132993000D02*
X139065000Y-132993000D01*
X136525000Y-132993000D02*
X136525000Y-132993000D01*
X139065000Y-132993000D02*
X136525000Y-132993000D01*
X139065000Y-132993000D02*
X139065000Y-132993000D01*
X138985000Y-142993000D02*
X138135000Y-142993000D01*
X138985000Y-142993000D02*
X138985000Y-142993000D01*
X138135000Y-142993000D02*
X138985000Y-142993000D01*
X138135000Y-142993000D02*
X138135000Y-142993000D01*
X128985000Y-132993000D02*
X128985000Y-132993000D01*
X128985000Y-142993000D02*
X128985000Y-132993000D01*
X128985000Y-142993000D02*
X128985000Y-142993000D01*
X128985000Y-132993000D02*
X128985000Y-142993000D01*
X138985000Y-142993000D02*
X138985000Y-142993000D01*
X138985000Y-132993000D02*
X138985000Y-142993000D01*
X138985000Y-132993000D02*
X138985000Y-132993000D01*
X138985000Y-142993000D02*
X138985000Y-132993000D01*
X138135000Y-152493000D02*
X129835000Y-152493000D01*
X138135000Y-142993000D02*
X138135000Y-152493000D01*
X129835000Y-142993000D02*
X138135000Y-142993000D01*
X129835000Y-152493000D02*
X129835000Y-142993000D01*
D10*
%TO.C,Joy2*%
X160882000Y-129737000D02*
X150402000Y-129737000D01*
X150402000Y-129737000D02*
X150402000Y-98767000D01*
X150402000Y-98767000D02*
X160882000Y-98767000D01*
X149507662Y-108962000D02*
X149507662Y-108462000D01*
X149507662Y-108462000D02*
X149940675Y-108712000D01*
X149940675Y-108712000D02*
X149507662Y-108962000D01*
%TO.C,Joy2.Aux1*%
X143170000Y-109170000D02*
X144500000Y-109170000D01*
X143170000Y-110500000D02*
X143170000Y-109170000D01*
X145770000Y-109170000D02*
X148370000Y-109170000D01*
X145770000Y-111770000D02*
X145770000Y-109170000D01*
X143170000Y-111770000D02*
X145770000Y-111770000D01*
X148370000Y-109170000D02*
X148370000Y-121990000D01*
X143170000Y-111770000D02*
X143170000Y-121990000D01*
X143170000Y-121990000D02*
X148370000Y-121990000D01*
%TO.C,U7*%
X135830000Y-129600000D02*
X141030000Y-129600000D01*
X135830000Y-50800000D02*
X135830000Y-129600000D01*
X141030000Y-48200000D02*
X141030000Y-129600000D01*
X135830000Y-50800000D02*
X138430000Y-50800000D01*
X138430000Y-50800000D02*
X138430000Y-48200000D01*
X138430000Y-48200000D02*
X141030000Y-48200000D01*
X135830000Y-49530000D02*
X135830000Y-48200000D01*
X135830000Y-48200000D02*
X137160000Y-48200000D01*
%TO.C,Serial1*%
X104050000Y-100170000D02*
X104050000Y-102830000D01*
X111730000Y-100170000D02*
X104050000Y-100170000D01*
X111730000Y-102830000D02*
X104050000Y-102830000D01*
X111730000Y-100170000D02*
X111730000Y-102830000D01*
X113000000Y-100170000D02*
X114330000Y-100170000D01*
X114330000Y-100170000D02*
X114330000Y-101500000D01*
%TO.C,Joy1*%
X160882000Y-96971000D02*
X150402000Y-96971000D01*
X150402000Y-96971000D02*
X150402000Y-66001000D01*
X150402000Y-66001000D02*
X160882000Y-66001000D01*
X149507662Y-76196000D02*
X149507662Y-75696000D01*
X149507662Y-75696000D02*
X149940675Y-75946000D01*
X149940675Y-75946000D02*
X149507662Y-76196000D01*
%TO.C,R14*%
X123550000Y-122690936D02*
X123550000Y-124145064D01*
X125370000Y-122690936D02*
X125370000Y-124145064D01*
%TO.C,R13*%
X126090000Y-122690936D02*
X126090000Y-124145064D01*
X127910000Y-122690936D02*
X127910000Y-124145064D01*
%TO.C,R12*%
X119827064Y-119994000D02*
X118372936Y-119994000D01*
X119827064Y-121814000D02*
X118372936Y-121814000D01*
%TO.C,R11*%
X133035064Y-119994000D02*
X131580936Y-119994000D01*
X133035064Y-121814000D02*
X131580936Y-121814000D01*
%TO.C,R10*%
X119853064Y-115930000D02*
X118398936Y-115930000D01*
X119853064Y-117750000D02*
X118398936Y-117750000D01*
%TO.C,R9*%
X133061064Y-115930000D02*
X131606936Y-115930000D01*
X133061064Y-117750000D02*
X131606936Y-117750000D01*
%TO.C,C12*%
X118376248Y-126640000D02*
X119798752Y-126640000D01*
X118376248Y-124820000D02*
X119798752Y-124820000D01*
%TO.C,C11*%
X131584248Y-126640000D02*
X133006752Y-126640000D01*
X131584248Y-124820000D02*
X133006752Y-124820000D01*
%TO.C,C10*%
X123550000Y-117398748D02*
X123550000Y-118821252D01*
X125370000Y-117398748D02*
X125370000Y-118821252D01*
%TO.C,C9*%
X126090000Y-117437248D02*
X126090000Y-118859752D01*
X127910000Y-117437248D02*
X127910000Y-118859752D01*
%TO.C,C8*%
X116692000Y-108724248D02*
X116692000Y-110146752D01*
X118512000Y-108724248D02*
X118512000Y-110146752D01*
%TO.C,C7*%
X119232000Y-108724248D02*
X119232000Y-110146752D01*
X121052000Y-108724248D02*
X121052000Y-110146752D01*
%TO.C,U8*%
X74870000Y-129600000D02*
X80070000Y-129600000D01*
X74870000Y-50800000D02*
X74870000Y-129600000D01*
X80070000Y-48200000D02*
X80070000Y-129600000D01*
X74870000Y-50800000D02*
X77470000Y-50800000D01*
X77470000Y-50800000D02*
X77470000Y-48200000D01*
X77470000Y-48200000D02*
X80070000Y-48200000D01*
X74870000Y-49530000D02*
X74870000Y-48200000D01*
X74870000Y-48200000D02*
X76200000Y-48200000D01*
%TO.C,C6*%
X108860000Y-115493252D02*
X108860000Y-114070748D01*
X107040000Y-115493252D02*
X107040000Y-114070748D01*
%TO.C,C5*%
X98919464Y-106803602D02*
X97913602Y-107809464D01*
X100206398Y-108090536D02*
X99200536Y-109096398D01*
%TO.C,C4*%
X104500000Y-114070748D02*
X104500000Y-115493252D01*
X106320000Y-114070748D02*
X106320000Y-115493252D01*
%TO.C,C3*%
X98358520Y-120352414D02*
X99364382Y-119346552D01*
X97071586Y-119065480D02*
X98077448Y-118059618D01*
%TO.C,C2*%
X122694248Y-53742000D02*
X124116752Y-53742000D01*
X122694248Y-51922000D02*
X124116752Y-51922000D01*
%TO.C,C1*%
X101866248Y-53742000D02*
X103288752Y-53742000D01*
X101866248Y-51922000D02*
X103288752Y-51922000D01*
%TO.C,R8*%
X112120000Y-123706936D02*
X112120000Y-125161064D01*
X113940000Y-123706936D02*
X113940000Y-125161064D01*
%TO.C,R7*%
X109580000Y-123758936D02*
X109580000Y-125213064D01*
X111400000Y-123758936D02*
X111400000Y-125213064D01*
%TO.C,R6*%
X101960000Y-114054936D02*
X101960000Y-115509064D01*
X103780000Y-114054936D02*
X103780000Y-115509064D01*
%TO.C,R5*%
X100887339Y-110711595D02*
X101915563Y-109683371D01*
X99600405Y-109424661D02*
X100628629Y-108396437D01*
%TO.C,R4*%
X106320000Y-125187064D02*
X106320000Y-123732936D01*
X104500000Y-125187064D02*
X104500000Y-123732936D01*
%TO.C,R3*%
X108860000Y-125187064D02*
X108860000Y-123732936D01*
X107040000Y-125187064D02*
X107040000Y-123732936D01*
%TO.C,R2*%
X101960000Y-123732936D02*
X101960000Y-125187064D01*
X103780000Y-123732936D02*
X103780000Y-125187064D01*
%TO.C,R1*%
X107381064Y-109072000D02*
X105926936Y-109072000D01*
X107381064Y-110892000D02*
X105926936Y-110892000D01*
%TO.C,U1*%
X118380000Y-54550000D02*
X112920000Y-54550000D01*
X112920000Y-54550000D02*
X112920000Y-95310000D01*
X112920000Y-95310000D02*
X125840000Y-95310000D01*
X125840000Y-95310000D02*
X125840000Y-54550000D01*
X125840000Y-54550000D02*
X120380000Y-54550000D01*
X120380000Y-54550000D02*
G75*
G02*
X118380000Y-54550000I-1000000J0D01*
G01*
%TO.C,U2*%
X97552000Y-54550000D02*
X92092000Y-54550000D01*
X92092000Y-54550000D02*
X92092000Y-95310000D01*
X92092000Y-95310000D02*
X105012000Y-95310000D01*
X105012000Y-95310000D02*
X105012000Y-54550000D01*
X105012000Y-54550000D02*
X99552000Y-54550000D01*
X99552000Y-54550000D02*
G75*
G02*
X97552000Y-54550000I-1000000J0D01*
G01*
%TD*%
%TO.C,VideoOut1*%
D12*
X113592857Y-141871428D02*
X114792857Y-141471428D01*
X113592857Y-141071428D01*
X114792857Y-140671428D02*
X113992857Y-140671428D01*
X113592857Y-140671428D02*
X113650000Y-140728571D01*
X113707142Y-140671428D01*
X113650000Y-140614285D01*
X113592857Y-140671428D01*
X113707142Y-140671428D01*
X114792857Y-139585714D02*
X113592857Y-139585714D01*
X114735714Y-139585714D02*
X114792857Y-139700000D01*
X114792857Y-139928571D01*
X114735714Y-140042857D01*
X114678571Y-140100000D01*
X114564285Y-140157142D01*
X114221428Y-140157142D01*
X114107142Y-140100000D01*
X114050000Y-140042857D01*
X113992857Y-139928571D01*
X113992857Y-139700000D01*
X114050000Y-139585714D01*
X114735714Y-138557142D02*
X114792857Y-138671428D01*
X114792857Y-138900000D01*
X114735714Y-139014285D01*
X114621428Y-139071428D01*
X114164285Y-139071428D01*
X114050000Y-139014285D01*
X113992857Y-138900000D01*
X113992857Y-138671428D01*
X114050000Y-138557142D01*
X114164285Y-138500000D01*
X114278571Y-138500000D01*
X114392857Y-139071428D01*
X114792857Y-137814285D02*
X114735714Y-137928571D01*
X114678571Y-137985714D01*
X114564285Y-138042857D01*
X114221428Y-138042857D01*
X114107142Y-137985714D01*
X114050000Y-137928571D01*
X113992857Y-137814285D01*
X113992857Y-137642857D01*
X114050000Y-137528571D01*
X114107142Y-137471428D01*
X114221428Y-137414285D01*
X114564285Y-137414285D01*
X114678571Y-137471428D01*
X114735714Y-137528571D01*
X114792857Y-137642857D01*
X114792857Y-137814285D01*
X113592857Y-136671428D02*
X113592857Y-136442857D01*
X113650000Y-136328571D01*
X113764285Y-136214285D01*
X113992857Y-136157142D01*
X114392857Y-136157142D01*
X114621428Y-136214285D01*
X114735714Y-136328571D01*
X114792857Y-136442857D01*
X114792857Y-136671428D01*
X114735714Y-136785714D01*
X114621428Y-136900000D01*
X114392857Y-136957142D01*
X113992857Y-136957142D01*
X113764285Y-136900000D01*
X113650000Y-136785714D01*
X113592857Y-136671428D01*
X113992857Y-135128571D02*
X114792857Y-135128571D01*
X113992857Y-135642857D02*
X114621428Y-135642857D01*
X114735714Y-135585714D01*
X114792857Y-135471428D01*
X114792857Y-135300000D01*
X114735714Y-135185714D01*
X114678571Y-135128571D01*
X113992857Y-134728571D02*
X113992857Y-134271428D01*
X113592857Y-134557142D02*
X114621428Y-134557142D01*
X114735714Y-134500000D01*
X114792857Y-134385714D01*
X114792857Y-134271428D01*
X114792857Y-133242857D02*
X114792857Y-133928571D01*
X114792857Y-133585714D02*
X113592857Y-133585714D01*
X113764285Y-133700000D01*
X113878571Y-133814285D01*
X113935714Y-133928571D01*
%TO.C,VREF1*%
D14*
X106247895Y-110329523D02*
X106671228Y-111599523D01*
X107094561Y-110329523D01*
X108243609Y-111599523D02*
X107820276Y-110994761D01*
X107517895Y-111599523D02*
X107517895Y-110329523D01*
X108001704Y-110329523D01*
X108122657Y-110390000D01*
X108183133Y-110450476D01*
X108243609Y-110571428D01*
X108243609Y-110752857D01*
X108183133Y-110873809D01*
X108122657Y-110934285D01*
X108001704Y-110994761D01*
X107517895Y-110994761D01*
X108787895Y-110934285D02*
X109211228Y-110934285D01*
X109392657Y-111599523D02*
X108787895Y-111599523D01*
X108787895Y-110329523D01*
X109392657Y-110329523D01*
X110360276Y-110934285D02*
X109936942Y-110934285D01*
X109936942Y-111599523D02*
X109936942Y-110329523D01*
X110541704Y-110329523D01*
X111690752Y-111599523D02*
X110965038Y-111599523D01*
X111327895Y-111599523D02*
X111327895Y-110329523D01*
X111206942Y-110510952D01*
X111085990Y-110631904D01*
X110965038Y-110692380D01*
%TO.C,J1*%
D15*
X113903666Y-129119380D02*
X113903666Y-129833666D01*
X113856047Y-129976523D01*
X113760809Y-130071761D01*
X113617952Y-130119380D01*
X113522714Y-130119380D01*
X114903666Y-130119380D02*
X114332238Y-130119380D01*
X114617952Y-130119380D02*
X114617952Y-129119380D01*
X114522714Y-129262238D01*
X114427476Y-129357476D01*
X114332238Y-129405095D01*
%TO.C,J0*%
X113776666Y-130770380D02*
X113776666Y-131484666D01*
X113729047Y-131627523D01*
X113633809Y-131722761D01*
X113490952Y-131770380D01*
X113395714Y-131770380D01*
X114443333Y-130770380D02*
X114538571Y-130770380D01*
X114633809Y-130818000D01*
X114681428Y-130865619D01*
X114729047Y-130960857D01*
X114776666Y-131151333D01*
X114776666Y-131389428D01*
X114729047Y-131579904D01*
X114681428Y-131675142D01*
X114633809Y-131722761D01*
X114538571Y-131770380D01*
X114443333Y-131770380D01*
X114348095Y-131722761D01*
X114300476Y-131675142D01*
X114252857Y-131579904D01*
X114205238Y-131389428D01*
X114205238Y-131151333D01*
X114252857Y-130960857D01*
X114300476Y-130865619D01*
X114348095Y-130818000D01*
X114443333Y-130770380D01*
%TO.C,IC3*%
D14*
X126304523Y-105981761D02*
X125034523Y-105981761D01*
X126183571Y-104651285D02*
X126244047Y-104711761D01*
X126304523Y-104893190D01*
X126304523Y-105014142D01*
X126244047Y-105195571D01*
X126123095Y-105316523D01*
X126002142Y-105377000D01*
X125760238Y-105437476D01*
X125578809Y-105437476D01*
X125336904Y-105377000D01*
X125215952Y-105316523D01*
X125095000Y-105195571D01*
X125034523Y-105014142D01*
X125034523Y-104893190D01*
X125095000Y-104711761D01*
X125155476Y-104651285D01*
X125034523Y-104227952D02*
X125034523Y-103441761D01*
X125518333Y-103865095D01*
X125518333Y-103683666D01*
X125578809Y-103562714D01*
X125639285Y-103502238D01*
X125760238Y-103441761D01*
X126062619Y-103441761D01*
X126183571Y-103502238D01*
X126244047Y-103562714D01*
X126304523Y-103683666D01*
X126304523Y-104046523D01*
X126244047Y-104167476D01*
X126183571Y-104227952D01*
%TO.C,IC1*%
X92653617Y-106447834D02*
X93551642Y-105549809D01*
X93679932Y-107303097D02*
X93594406Y-107303097D01*
X93423353Y-107217570D01*
X93337827Y-107132044D01*
X93252301Y-106960992D01*
X93252301Y-106789939D01*
X93295064Y-106661650D01*
X93423353Y-106447834D01*
X93551642Y-106319545D01*
X93765458Y-106191255D01*
X93893747Y-106148492D01*
X94064800Y-106148492D01*
X94235852Y-106234019D01*
X94321379Y-106319545D01*
X94406905Y-106490597D01*
X94406905Y-106576124D01*
X94449668Y-108243885D02*
X93936511Y-107730728D01*
X94193089Y-107987307D02*
X95091115Y-107089281D01*
X94877299Y-107132044D01*
X94706247Y-107132044D01*
X94577957Y-107089281D01*
%TO.C,AudioR1*%
X127719666Y-140728095D02*
X127719666Y-140123333D01*
X128082523Y-140849047D02*
X126812523Y-140425714D01*
X128082523Y-140002380D01*
X127235857Y-139034761D02*
X128082523Y-139034761D01*
X127235857Y-139579047D02*
X127901095Y-139579047D01*
X128022047Y-139518571D01*
X128082523Y-139397619D01*
X128082523Y-139216190D01*
X128022047Y-139095238D01*
X127961571Y-139034761D01*
X128082523Y-137885714D02*
X126812523Y-137885714D01*
X128022047Y-137885714D02*
X128082523Y-138006666D01*
X128082523Y-138248571D01*
X128022047Y-138369523D01*
X127961571Y-138430000D01*
X127840619Y-138490476D01*
X127477761Y-138490476D01*
X127356809Y-138430000D01*
X127296333Y-138369523D01*
X127235857Y-138248571D01*
X127235857Y-138006666D01*
X127296333Y-137885714D01*
X128082523Y-137280952D02*
X127235857Y-137280952D01*
X126812523Y-137280952D02*
X126873000Y-137341428D01*
X126933476Y-137280952D01*
X126873000Y-137220476D01*
X126812523Y-137280952D01*
X126933476Y-137280952D01*
X128082523Y-136494761D02*
X128022047Y-136615714D01*
X127961571Y-136676190D01*
X127840619Y-136736666D01*
X127477761Y-136736666D01*
X127356809Y-136676190D01*
X127296333Y-136615714D01*
X127235857Y-136494761D01*
X127235857Y-136313333D01*
X127296333Y-136192380D01*
X127356809Y-136131904D01*
X127477761Y-136071428D01*
X127840619Y-136071428D01*
X127961571Y-136131904D01*
X128022047Y-136192380D01*
X128082523Y-136313333D01*
X128082523Y-136494761D01*
X128082523Y-134801428D02*
X127477761Y-135224761D01*
X128082523Y-135527142D02*
X126812523Y-135527142D01*
X126812523Y-135043333D01*
X126873000Y-134922380D01*
X126933476Y-134861904D01*
X127054428Y-134801428D01*
X127235857Y-134801428D01*
X127356809Y-134861904D01*
X127417285Y-134922380D01*
X127477761Y-135043333D01*
X127477761Y-135527142D01*
X128082523Y-133591904D02*
X128082523Y-134317619D01*
X128082523Y-133954761D02*
X126812523Y-133954761D01*
X126993952Y-134075714D01*
X127114904Y-134196666D01*
X127175380Y-134317619D01*
%TO.C,AudioL1*%
X140546666Y-140607142D02*
X140546666Y-140002380D01*
X140909523Y-140728095D02*
X139639523Y-140304761D01*
X140909523Y-139881428D01*
X140062857Y-138913809D02*
X140909523Y-138913809D01*
X140062857Y-139458095D02*
X140728095Y-139458095D01*
X140849047Y-139397619D01*
X140909523Y-139276666D01*
X140909523Y-139095238D01*
X140849047Y-138974285D01*
X140788571Y-138913809D01*
X140909523Y-137764761D02*
X139639523Y-137764761D01*
X140849047Y-137764761D02*
X140909523Y-137885714D01*
X140909523Y-138127619D01*
X140849047Y-138248571D01*
X140788571Y-138309047D01*
X140667619Y-138369523D01*
X140304761Y-138369523D01*
X140183809Y-138309047D01*
X140123333Y-138248571D01*
X140062857Y-138127619D01*
X140062857Y-137885714D01*
X140123333Y-137764761D01*
X140909523Y-137160000D02*
X140062857Y-137160000D01*
X139639523Y-137160000D02*
X139700000Y-137220476D01*
X139760476Y-137160000D01*
X139700000Y-137099523D01*
X139639523Y-137160000D01*
X139760476Y-137160000D01*
X140909523Y-136373809D02*
X140849047Y-136494761D01*
X140788571Y-136555238D01*
X140667619Y-136615714D01*
X140304761Y-136615714D01*
X140183809Y-136555238D01*
X140123333Y-136494761D01*
X140062857Y-136373809D01*
X140062857Y-136192380D01*
X140123333Y-136071428D01*
X140183809Y-136010952D01*
X140304761Y-135950476D01*
X140667619Y-135950476D01*
X140788571Y-136010952D01*
X140849047Y-136071428D01*
X140909523Y-136192380D01*
X140909523Y-136373809D01*
X140909523Y-134801428D02*
X140909523Y-135406190D01*
X139639523Y-135406190D01*
X140909523Y-133712857D02*
X140909523Y-134438571D01*
X140909523Y-134075714D02*
X139639523Y-134075714D01*
X139820952Y-134196666D01*
X139941904Y-134317619D01*
X140002380Y-134438571D01*
%TO.C,Joy2*%
D15*
X154250000Y-130178571D02*
X154250000Y-131250000D01*
X154178571Y-131464285D01*
X154035714Y-131607142D01*
X153821428Y-131678571D01*
X153678571Y-131678571D01*
X155178571Y-131678571D02*
X155035714Y-131607142D01*
X154964285Y-131535714D01*
X154892857Y-131392857D01*
X154892857Y-130964285D01*
X154964285Y-130821428D01*
X155035714Y-130750000D01*
X155178571Y-130678571D01*
X155392857Y-130678571D01*
X155535714Y-130750000D01*
X155607142Y-130821428D01*
X155678571Y-130964285D01*
X155678571Y-131392857D01*
X155607142Y-131535714D01*
X155535714Y-131607142D01*
X155392857Y-131678571D01*
X155178571Y-131678571D01*
X156178571Y-130678571D02*
X156535714Y-131678571D01*
X156892857Y-130678571D02*
X156535714Y-131678571D01*
X156392857Y-132035714D01*
X156321428Y-132107142D01*
X156178571Y-132178571D01*
X157392857Y-130321428D02*
X157464285Y-130250000D01*
X157607142Y-130178571D01*
X157964285Y-130178571D01*
X158107142Y-130250000D01*
X158178571Y-130321428D01*
X158250000Y-130464285D01*
X158250000Y-130607142D01*
X158178571Y-130821428D01*
X157321428Y-131678571D01*
X158250000Y-131678571D01*
%TO.C,Joy2.Aux1*%
X142603333Y-107622380D02*
X142603333Y-108336666D01*
X142555714Y-108479523D01*
X142460476Y-108574761D01*
X142317619Y-108622380D01*
X142222380Y-108622380D01*
X143222380Y-108622380D02*
X143127142Y-108574761D01*
X143079523Y-108527142D01*
X143031904Y-108431904D01*
X143031904Y-108146190D01*
X143079523Y-108050952D01*
X143127142Y-108003333D01*
X143222380Y-107955714D01*
X143365238Y-107955714D01*
X143460476Y-108003333D01*
X143508095Y-108050952D01*
X143555714Y-108146190D01*
X143555714Y-108431904D01*
X143508095Y-108527142D01*
X143460476Y-108574761D01*
X143365238Y-108622380D01*
X143222380Y-108622380D01*
X143889047Y-107955714D02*
X144127142Y-108622380D01*
X144365238Y-107955714D02*
X144127142Y-108622380D01*
X144031904Y-108860476D01*
X143984285Y-108908095D01*
X143889047Y-108955714D01*
X144698571Y-107717619D02*
X144746190Y-107670000D01*
X144841428Y-107622380D01*
X145079523Y-107622380D01*
X145174761Y-107670000D01*
X145222380Y-107717619D01*
X145270000Y-107812857D01*
X145270000Y-107908095D01*
X145222380Y-108050952D01*
X144650952Y-108622380D01*
X145270000Y-108622380D01*
X145698571Y-108527142D02*
X145746190Y-108574761D01*
X145698571Y-108622380D01*
X145650952Y-108574761D01*
X145698571Y-108527142D01*
X145698571Y-108622380D01*
X146127142Y-108336666D02*
X146603333Y-108336666D01*
X146031904Y-108622380D02*
X146365238Y-107622380D01*
X146698571Y-108622380D01*
X147460476Y-107955714D02*
X147460476Y-108622380D01*
X147031904Y-107955714D02*
X147031904Y-108479523D01*
X147079523Y-108574761D01*
X147174761Y-108622380D01*
X147317619Y-108622380D01*
X147412857Y-108574761D01*
X147460476Y-108527142D01*
X147841428Y-108622380D02*
X148365238Y-107955714D01*
X147841428Y-107955714D02*
X148365238Y-108622380D01*
X149270000Y-108622380D02*
X148698571Y-108622380D01*
X148984285Y-108622380D02*
X148984285Y-107622380D01*
X148889047Y-107765238D01*
X148793809Y-107860476D01*
X148698571Y-107908095D01*
%TO.C,U7*%
X137922095Y-45680380D02*
X137922095Y-46489904D01*
X137969714Y-46585142D01*
X138017333Y-46632761D01*
X138112571Y-46680380D01*
X138303047Y-46680380D01*
X138398285Y-46632761D01*
X138445904Y-46585142D01*
X138493523Y-46489904D01*
X138493523Y-45680380D01*
X138874476Y-45680380D02*
X139541142Y-45680380D01*
X139112571Y-46680380D01*
%TO.C,Serial1*%
D16*
X108086428Y-103432142D02*
X108150714Y-103453571D01*
X108257857Y-103453571D01*
X108300714Y-103432142D01*
X108322142Y-103410714D01*
X108343571Y-103367857D01*
X108343571Y-103325000D01*
X108322142Y-103282142D01*
X108300714Y-103260714D01*
X108257857Y-103239285D01*
X108172142Y-103217857D01*
X108129285Y-103196428D01*
X108107857Y-103175000D01*
X108086428Y-103132142D01*
X108086428Y-103089285D01*
X108107857Y-103046428D01*
X108129285Y-103025000D01*
X108172142Y-103003571D01*
X108279285Y-103003571D01*
X108343571Y-103025000D01*
X108707857Y-103432142D02*
X108665000Y-103453571D01*
X108579285Y-103453571D01*
X108536428Y-103432142D01*
X108515000Y-103389285D01*
X108515000Y-103217857D01*
X108536428Y-103175000D01*
X108579285Y-103153571D01*
X108665000Y-103153571D01*
X108707857Y-103175000D01*
X108729285Y-103217857D01*
X108729285Y-103260714D01*
X108515000Y-103303571D01*
X108922142Y-103453571D02*
X108922142Y-103153571D01*
X108922142Y-103239285D02*
X108943571Y-103196428D01*
X108965000Y-103175000D01*
X109007857Y-103153571D01*
X109050714Y-103153571D01*
X109200714Y-103453571D02*
X109200714Y-103153571D01*
X109200714Y-103003571D02*
X109179285Y-103025000D01*
X109200714Y-103046428D01*
X109222142Y-103025000D01*
X109200714Y-103003571D01*
X109200714Y-103046428D01*
X109607857Y-103453571D02*
X109607857Y-103217857D01*
X109586428Y-103175000D01*
X109543571Y-103153571D01*
X109457857Y-103153571D01*
X109415000Y-103175000D01*
X109607857Y-103432142D02*
X109565000Y-103453571D01*
X109457857Y-103453571D01*
X109415000Y-103432142D01*
X109393571Y-103389285D01*
X109393571Y-103346428D01*
X109415000Y-103303571D01*
X109457857Y-103282142D01*
X109565000Y-103282142D01*
X109607857Y-103260714D01*
X109886428Y-103453571D02*
X109843571Y-103432142D01*
X109822142Y-103389285D01*
X109822142Y-103003571D01*
X110293571Y-103453571D02*
X110036428Y-103453571D01*
X110165000Y-103453571D02*
X110165000Y-103003571D01*
X110122142Y-103067857D01*
X110079285Y-103110714D01*
X110036428Y-103132142D01*
%TO.C,Joy1*%
D15*
X154750000Y-63428571D02*
X154750000Y-64500000D01*
X154678571Y-64714285D01*
X154535714Y-64857142D01*
X154321428Y-64928571D01*
X154178571Y-64928571D01*
X155678571Y-64928571D02*
X155535714Y-64857142D01*
X155464285Y-64785714D01*
X155392857Y-64642857D01*
X155392857Y-64214285D01*
X155464285Y-64071428D01*
X155535714Y-64000000D01*
X155678571Y-63928571D01*
X155892857Y-63928571D01*
X156035714Y-64000000D01*
X156107142Y-64071428D01*
X156178571Y-64214285D01*
X156178571Y-64642857D01*
X156107142Y-64785714D01*
X156035714Y-64857142D01*
X155892857Y-64928571D01*
X155678571Y-64928571D01*
X156678571Y-63928571D02*
X157035714Y-64928571D01*
X157392857Y-63928571D02*
X157035714Y-64928571D01*
X156892857Y-65285714D01*
X156821428Y-65357142D01*
X156678571Y-65428571D01*
X158750000Y-64928571D02*
X157892857Y-64928571D01*
X158321428Y-64928571D02*
X158321428Y-63428571D01*
X158178571Y-63642857D01*
X158035714Y-63785714D01*
X157892857Y-63857142D01*
%TO.C,R14*%
D17*
X124041357Y-126767785D02*
X123791357Y-126410642D01*
X123612785Y-126767785D02*
X123612785Y-126017785D01*
X123898500Y-126017785D01*
X123969928Y-126053500D01*
X124005642Y-126089214D01*
X124041357Y-126160642D01*
X124041357Y-126267785D01*
X124005642Y-126339214D01*
X123969928Y-126374928D01*
X123898500Y-126410642D01*
X123612785Y-126410642D01*
X124755642Y-126767785D02*
X124327071Y-126767785D01*
X124541357Y-126767785D02*
X124541357Y-126017785D01*
X124469928Y-126124928D01*
X124398500Y-126196357D01*
X124327071Y-126232071D01*
X125398500Y-126267785D02*
X125398500Y-126767785D01*
X125219928Y-125982071D02*
X125041357Y-126517785D01*
X125505642Y-126517785D01*
%TO.C,R13*%
X126517857Y-126831285D02*
X126267857Y-126474142D01*
X126089285Y-126831285D02*
X126089285Y-126081285D01*
X126375000Y-126081285D01*
X126446428Y-126117000D01*
X126482142Y-126152714D01*
X126517857Y-126224142D01*
X126517857Y-126331285D01*
X126482142Y-126402714D01*
X126446428Y-126438428D01*
X126375000Y-126474142D01*
X126089285Y-126474142D01*
X127232142Y-126831285D02*
X126803571Y-126831285D01*
X127017857Y-126831285D02*
X127017857Y-126081285D01*
X126946428Y-126188428D01*
X126875000Y-126259857D01*
X126803571Y-126295571D01*
X127482142Y-126081285D02*
X127946428Y-126081285D01*
X127696428Y-126367000D01*
X127803571Y-126367000D01*
X127875000Y-126402714D01*
X127910714Y-126438428D01*
X127946428Y-126509857D01*
X127946428Y-126688428D01*
X127910714Y-126759857D01*
X127875000Y-126795571D01*
X127803571Y-126831285D01*
X127589285Y-126831285D01*
X127517857Y-126795571D01*
X127482142Y-126759857D01*
%TO.C,R12*%
D15*
X118483142Y-123388380D02*
X118149809Y-122912190D01*
X117911714Y-123388380D02*
X117911714Y-122388380D01*
X118292666Y-122388380D01*
X118387904Y-122436000D01*
X118435523Y-122483619D01*
X118483142Y-122578857D01*
X118483142Y-122721714D01*
X118435523Y-122816952D01*
X118387904Y-122864571D01*
X118292666Y-122912190D01*
X117911714Y-122912190D01*
X119435523Y-123388380D02*
X118864095Y-123388380D01*
X119149809Y-123388380D02*
X119149809Y-122388380D01*
X119054571Y-122531238D01*
X118959333Y-122626476D01*
X118864095Y-122674095D01*
X119816476Y-122483619D02*
X119864095Y-122436000D01*
X119959333Y-122388380D01*
X120197428Y-122388380D01*
X120292666Y-122436000D01*
X120340285Y-122483619D01*
X120387904Y-122578857D01*
X120387904Y-122674095D01*
X120340285Y-122816952D01*
X119768857Y-123388380D01*
X120387904Y-123388380D01*
%TO.C,R11*%
X131691142Y-123388380D02*
X131357809Y-122912190D01*
X131119714Y-123388380D02*
X131119714Y-122388380D01*
X131500666Y-122388380D01*
X131595904Y-122436000D01*
X131643523Y-122483619D01*
X131691142Y-122578857D01*
X131691142Y-122721714D01*
X131643523Y-122816952D01*
X131595904Y-122864571D01*
X131500666Y-122912190D01*
X131119714Y-122912190D01*
X132643523Y-123388380D02*
X132072095Y-123388380D01*
X132357809Y-123388380D02*
X132357809Y-122388380D01*
X132262571Y-122531238D01*
X132167333Y-122626476D01*
X132072095Y-122674095D01*
X133595904Y-123388380D02*
X133024476Y-123388380D01*
X133310190Y-123388380D02*
X133310190Y-122388380D01*
X133214952Y-122531238D01*
X133119714Y-122626476D01*
X133024476Y-122674095D01*
%TO.C,R10*%
X118483142Y-119324380D02*
X118149809Y-118848190D01*
X117911714Y-119324380D02*
X117911714Y-118324380D01*
X118292666Y-118324380D01*
X118387904Y-118372000D01*
X118435523Y-118419619D01*
X118483142Y-118514857D01*
X118483142Y-118657714D01*
X118435523Y-118752952D01*
X118387904Y-118800571D01*
X118292666Y-118848190D01*
X117911714Y-118848190D01*
X119435523Y-119324380D02*
X118864095Y-119324380D01*
X119149809Y-119324380D02*
X119149809Y-118324380D01*
X119054571Y-118467238D01*
X118959333Y-118562476D01*
X118864095Y-118610095D01*
X120054571Y-118324380D02*
X120149809Y-118324380D01*
X120245047Y-118372000D01*
X120292666Y-118419619D01*
X120340285Y-118514857D01*
X120387904Y-118705333D01*
X120387904Y-118943428D01*
X120340285Y-119133904D01*
X120292666Y-119229142D01*
X120245047Y-119276761D01*
X120149809Y-119324380D01*
X120054571Y-119324380D01*
X119959333Y-119276761D01*
X119911714Y-119229142D01*
X119864095Y-119133904D01*
X119816476Y-118943428D01*
X119816476Y-118705333D01*
X119864095Y-118514857D01*
X119911714Y-118419619D01*
X119959333Y-118372000D01*
X120054571Y-118324380D01*
%TO.C,R9*%
X132167333Y-119324380D02*
X131834000Y-118848190D01*
X131595904Y-119324380D02*
X131595904Y-118324380D01*
X131976857Y-118324380D01*
X132072095Y-118372000D01*
X132119714Y-118419619D01*
X132167333Y-118514857D01*
X132167333Y-118657714D01*
X132119714Y-118752952D01*
X132072095Y-118800571D01*
X131976857Y-118848190D01*
X131595904Y-118848190D01*
X132643523Y-119324380D02*
X132834000Y-119324380D01*
X132929238Y-119276761D01*
X132976857Y-119229142D01*
X133072095Y-119086285D01*
X133119714Y-118895809D01*
X133119714Y-118514857D01*
X133072095Y-118419619D01*
X133024476Y-118372000D01*
X132929238Y-118324380D01*
X132738761Y-118324380D01*
X132643523Y-118372000D01*
X132595904Y-118419619D01*
X132548285Y-118514857D01*
X132548285Y-118752952D01*
X132595904Y-118848190D01*
X132643523Y-118895809D01*
X132738761Y-118943428D01*
X132929238Y-118943428D01*
X133024476Y-118895809D01*
X133072095Y-118848190D01*
X133119714Y-118752952D01*
%TO.C,C12*%
X118483142Y-128119142D02*
X118435523Y-128166761D01*
X118292666Y-128214380D01*
X118197428Y-128214380D01*
X118054571Y-128166761D01*
X117959333Y-128071523D01*
X117911714Y-127976285D01*
X117864095Y-127785809D01*
X117864095Y-127642952D01*
X117911714Y-127452476D01*
X117959333Y-127357238D01*
X118054571Y-127262000D01*
X118197428Y-127214380D01*
X118292666Y-127214380D01*
X118435523Y-127262000D01*
X118483142Y-127309619D01*
X119435523Y-128214380D02*
X118864095Y-128214380D01*
X119149809Y-128214380D02*
X119149809Y-127214380D01*
X119054571Y-127357238D01*
X118959333Y-127452476D01*
X118864095Y-127500095D01*
X119816476Y-127309619D02*
X119864095Y-127262000D01*
X119959333Y-127214380D01*
X120197428Y-127214380D01*
X120292666Y-127262000D01*
X120340285Y-127309619D01*
X120387904Y-127404857D01*
X120387904Y-127500095D01*
X120340285Y-127642952D01*
X119768857Y-128214380D01*
X120387904Y-128214380D01*
%TO.C,C11*%
X131652642Y-128119142D02*
X131605023Y-128166761D01*
X131462166Y-128214380D01*
X131366928Y-128214380D01*
X131224071Y-128166761D01*
X131128833Y-128071523D01*
X131081214Y-127976285D01*
X131033595Y-127785809D01*
X131033595Y-127642952D01*
X131081214Y-127452476D01*
X131128833Y-127357238D01*
X131224071Y-127262000D01*
X131366928Y-127214380D01*
X131462166Y-127214380D01*
X131605023Y-127262000D01*
X131652642Y-127309619D01*
X132605023Y-128214380D02*
X132033595Y-128214380D01*
X132319309Y-128214380D02*
X132319309Y-127214380D01*
X132224071Y-127357238D01*
X132128833Y-127452476D01*
X132033595Y-127500095D01*
X133557404Y-128214380D02*
X132985976Y-128214380D01*
X133271690Y-128214380D02*
X133271690Y-127214380D01*
X133176452Y-127357238D01*
X133081214Y-127452476D01*
X132985976Y-127500095D01*
%TO.C,C10*%
D17*
X124168357Y-115266357D02*
X124132642Y-115302071D01*
X124025500Y-115337785D01*
X123954071Y-115337785D01*
X123846928Y-115302071D01*
X123775500Y-115230642D01*
X123739785Y-115159214D01*
X123704071Y-115016357D01*
X123704071Y-114909214D01*
X123739785Y-114766357D01*
X123775500Y-114694928D01*
X123846928Y-114623500D01*
X123954071Y-114587785D01*
X124025500Y-114587785D01*
X124132642Y-114623500D01*
X124168357Y-114659214D01*
X124882642Y-115337785D02*
X124454071Y-115337785D01*
X124668357Y-115337785D02*
X124668357Y-114587785D01*
X124596928Y-114694928D01*
X124525500Y-114766357D01*
X124454071Y-114802071D01*
X125346928Y-114587785D02*
X125418357Y-114587785D01*
X125489785Y-114623500D01*
X125525500Y-114659214D01*
X125561214Y-114730642D01*
X125596928Y-114873500D01*
X125596928Y-115052071D01*
X125561214Y-115194928D01*
X125525500Y-115266357D01*
X125489785Y-115302071D01*
X125418357Y-115337785D01*
X125346928Y-115337785D01*
X125275500Y-115302071D01*
X125239785Y-115266357D01*
X125204071Y-115194928D01*
X125168357Y-115052071D01*
X125168357Y-114873500D01*
X125204071Y-114730642D01*
X125239785Y-114659214D01*
X125275500Y-114623500D01*
X125346928Y-114587785D01*
%TO.C,C9*%
X126811500Y-115266357D02*
X126775785Y-115302071D01*
X126668642Y-115337785D01*
X126597214Y-115337785D01*
X126490071Y-115302071D01*
X126418642Y-115230642D01*
X126382928Y-115159214D01*
X126347214Y-115016357D01*
X126347214Y-114909214D01*
X126382928Y-114766357D01*
X126418642Y-114694928D01*
X126490071Y-114623500D01*
X126597214Y-114587785D01*
X126668642Y-114587785D01*
X126775785Y-114623500D01*
X126811500Y-114659214D01*
X127168642Y-115337785D02*
X127311500Y-115337785D01*
X127382928Y-115302071D01*
X127418642Y-115266357D01*
X127490071Y-115159214D01*
X127525785Y-115016357D01*
X127525785Y-114730642D01*
X127490071Y-114659214D01*
X127454357Y-114623500D01*
X127382928Y-114587785D01*
X127240071Y-114587785D01*
X127168642Y-114623500D01*
X127132928Y-114659214D01*
X127097214Y-114730642D01*
X127097214Y-114909214D01*
X127132928Y-114980642D01*
X127168642Y-115016357D01*
X127240071Y-115052071D01*
X127382928Y-115052071D01*
X127454357Y-115016357D01*
X127490071Y-114980642D01*
X127525785Y-114909214D01*
%TO.C,C8*%
D15*
X117308333Y-106592642D02*
X117260714Y-106640261D01*
X117117857Y-106687880D01*
X117022619Y-106687880D01*
X116879761Y-106640261D01*
X116784523Y-106545023D01*
X116736904Y-106449785D01*
X116689285Y-106259309D01*
X116689285Y-106116452D01*
X116736904Y-105925976D01*
X116784523Y-105830738D01*
X116879761Y-105735500D01*
X117022619Y-105687880D01*
X117117857Y-105687880D01*
X117260714Y-105735500D01*
X117308333Y-105783119D01*
X117879761Y-106116452D02*
X117784523Y-106068833D01*
X117736904Y-106021214D01*
X117689285Y-105925976D01*
X117689285Y-105878357D01*
X117736904Y-105783119D01*
X117784523Y-105735500D01*
X117879761Y-105687880D01*
X118070238Y-105687880D01*
X118165476Y-105735500D01*
X118213095Y-105783119D01*
X118260714Y-105878357D01*
X118260714Y-105925976D01*
X118213095Y-106021214D01*
X118165476Y-106068833D01*
X118070238Y-106116452D01*
X117879761Y-106116452D01*
X117784523Y-106164071D01*
X117736904Y-106211690D01*
X117689285Y-106306928D01*
X117689285Y-106497404D01*
X117736904Y-106592642D01*
X117784523Y-106640261D01*
X117879761Y-106687880D01*
X118070238Y-106687880D01*
X118165476Y-106640261D01*
X118213095Y-106592642D01*
X118260714Y-106497404D01*
X118260714Y-106306928D01*
X118213095Y-106211690D01*
X118165476Y-106164071D01*
X118070238Y-106116452D01*
%TO.C,C7*%
X119911833Y-106592642D02*
X119864214Y-106640261D01*
X119721357Y-106687880D01*
X119626119Y-106687880D01*
X119483261Y-106640261D01*
X119388023Y-106545023D01*
X119340404Y-106449785D01*
X119292785Y-106259309D01*
X119292785Y-106116452D01*
X119340404Y-105925976D01*
X119388023Y-105830738D01*
X119483261Y-105735500D01*
X119626119Y-105687880D01*
X119721357Y-105687880D01*
X119864214Y-105735500D01*
X119911833Y-105783119D01*
X120245166Y-105687880D02*
X120911833Y-105687880D01*
X120483261Y-106687880D01*
%TO.C,U8*%
X76708095Y-45680380D02*
X76708095Y-46489904D01*
X76755714Y-46585142D01*
X76803333Y-46632761D01*
X76898571Y-46680380D01*
X77089047Y-46680380D01*
X77184285Y-46632761D01*
X77231904Y-46585142D01*
X77279523Y-46489904D01*
X77279523Y-45680380D01*
X77898571Y-46108952D02*
X77803333Y-46061333D01*
X77755714Y-46013714D01*
X77708095Y-45918476D01*
X77708095Y-45870857D01*
X77755714Y-45775619D01*
X77803333Y-45728000D01*
X77898571Y-45680380D01*
X78089047Y-45680380D01*
X78184285Y-45728000D01*
X78231904Y-45775619D01*
X78279523Y-45870857D01*
X78279523Y-45918476D01*
X78231904Y-46013714D01*
X78184285Y-46061333D01*
X78089047Y-46108952D01*
X77898571Y-46108952D01*
X77803333Y-46156571D01*
X77755714Y-46204190D01*
X77708095Y-46299428D01*
X77708095Y-46489904D01*
X77755714Y-46585142D01*
X77803333Y-46632761D01*
X77898571Y-46680380D01*
X78089047Y-46680380D01*
X78184285Y-46632761D01*
X78231904Y-46585142D01*
X78279523Y-46489904D01*
X78279523Y-46299428D01*
X78231904Y-46204190D01*
X78184285Y-46156571D01*
X78089047Y-46108952D01*
%TO.C,C6*%
X107783333Y-118276642D02*
X107735714Y-118324261D01*
X107592857Y-118371880D01*
X107497619Y-118371880D01*
X107354761Y-118324261D01*
X107259523Y-118229023D01*
X107211904Y-118133785D01*
X107164285Y-117943309D01*
X107164285Y-117800452D01*
X107211904Y-117609976D01*
X107259523Y-117514738D01*
X107354761Y-117419500D01*
X107497619Y-117371880D01*
X107592857Y-117371880D01*
X107735714Y-117419500D01*
X107783333Y-117467119D01*
X108640476Y-117371880D02*
X108450000Y-117371880D01*
X108354761Y-117419500D01*
X108307142Y-117467119D01*
X108211904Y-117609976D01*
X108164285Y-117800452D01*
X108164285Y-118181404D01*
X108211904Y-118276642D01*
X108259523Y-118324261D01*
X108354761Y-118371880D01*
X108545238Y-118371880D01*
X108640476Y-118324261D01*
X108688095Y-118276642D01*
X108735714Y-118181404D01*
X108735714Y-117943309D01*
X108688095Y-117848071D01*
X108640476Y-117800452D01*
X108545238Y-117752833D01*
X108354761Y-117752833D01*
X108259523Y-117800452D01*
X108211904Y-117848071D01*
X108164285Y-117943309D01*
%TO.C,C5*%
X96908687Y-110987389D02*
X96908687Y-111054732D01*
X96841343Y-111189419D01*
X96774000Y-111256763D01*
X96639312Y-111324106D01*
X96504625Y-111324106D01*
X96403610Y-111290435D01*
X96235251Y-111189419D01*
X96134236Y-111088404D01*
X96033221Y-110920045D01*
X95999549Y-110819030D01*
X95999549Y-110684343D01*
X96066893Y-110549656D01*
X96134236Y-110482312D01*
X96268923Y-110414969D01*
X96336267Y-110414969D01*
X96908687Y-109707862D02*
X96571969Y-110044580D01*
X96875015Y-110414969D01*
X96875015Y-110347625D01*
X96908687Y-110246610D01*
X97077045Y-110078251D01*
X97178061Y-110044580D01*
X97245404Y-110044580D01*
X97346419Y-110078251D01*
X97514778Y-110246610D01*
X97548450Y-110347625D01*
X97548450Y-110414969D01*
X97514778Y-110515984D01*
X97346419Y-110684343D01*
X97245404Y-110718015D01*
X97178061Y-110718015D01*
%TO.C,C4*%
X105243333Y-118276642D02*
X105195714Y-118324261D01*
X105052857Y-118371880D01*
X104957619Y-118371880D01*
X104814761Y-118324261D01*
X104719523Y-118229023D01*
X104671904Y-118133785D01*
X104624285Y-117943309D01*
X104624285Y-117800452D01*
X104671904Y-117609976D01*
X104719523Y-117514738D01*
X104814761Y-117419500D01*
X104957619Y-117371880D01*
X105052857Y-117371880D01*
X105195714Y-117419500D01*
X105243333Y-117467119D01*
X106100476Y-117705214D02*
X106100476Y-118371880D01*
X105862380Y-117324261D02*
X105624285Y-118038547D01*
X106243333Y-118038547D01*
%TO.C,C3*%
X97035687Y-118289889D02*
X97035687Y-118357232D01*
X96968343Y-118491919D01*
X96901000Y-118559263D01*
X96766312Y-118626606D01*
X96631625Y-118626606D01*
X96530610Y-118592935D01*
X96362251Y-118491919D01*
X96261236Y-118390904D01*
X96160221Y-118222545D01*
X96126549Y-118121530D01*
X96126549Y-117986843D01*
X96193893Y-117852156D01*
X96261236Y-117784812D01*
X96395923Y-117717469D01*
X96463267Y-117717469D01*
X96631625Y-117414423D02*
X97069358Y-116976690D01*
X97103030Y-117481767D01*
X97204045Y-117380751D01*
X97305061Y-117347080D01*
X97372404Y-117347080D01*
X97473419Y-117380751D01*
X97641778Y-117549110D01*
X97675450Y-117650125D01*
X97675450Y-117717469D01*
X97641778Y-117818484D01*
X97439748Y-118020515D01*
X97338732Y-118054187D01*
X97271389Y-118054187D01*
%TO.C,C2*%
X119784833Y-53252642D02*
X119737214Y-53300261D01*
X119594357Y-53347880D01*
X119499119Y-53347880D01*
X119356261Y-53300261D01*
X119261023Y-53205023D01*
X119213404Y-53109785D01*
X119165785Y-52919309D01*
X119165785Y-52776452D01*
X119213404Y-52585976D01*
X119261023Y-52490738D01*
X119356261Y-52395500D01*
X119499119Y-52347880D01*
X119594357Y-52347880D01*
X119737214Y-52395500D01*
X119784833Y-52443119D01*
X120165785Y-52443119D02*
X120213404Y-52395500D01*
X120308642Y-52347880D01*
X120546738Y-52347880D01*
X120641976Y-52395500D01*
X120689595Y-52443119D01*
X120737214Y-52538357D01*
X120737214Y-52633595D01*
X120689595Y-52776452D01*
X120118166Y-53347880D01*
X120737214Y-53347880D01*
%TO.C,C1*%
X99020333Y-53189142D02*
X98972714Y-53236761D01*
X98829857Y-53284380D01*
X98734619Y-53284380D01*
X98591761Y-53236761D01*
X98496523Y-53141523D01*
X98448904Y-53046285D01*
X98401285Y-52855809D01*
X98401285Y-52712952D01*
X98448904Y-52522476D01*
X98496523Y-52427238D01*
X98591761Y-52332000D01*
X98734619Y-52284380D01*
X98829857Y-52284380D01*
X98972714Y-52332000D01*
X99020333Y-52379619D01*
X99972714Y-53284380D02*
X99401285Y-53284380D01*
X99687000Y-53284380D02*
X99687000Y-52284380D01*
X99591761Y-52427238D01*
X99496523Y-52522476D01*
X99401285Y-52570095D01*
%TO.C,R8*%
X113482380Y-128182666D02*
X113006190Y-128516000D01*
X113482380Y-128754095D02*
X112482380Y-128754095D01*
X112482380Y-128373142D01*
X112530000Y-128277904D01*
X112577619Y-128230285D01*
X112672857Y-128182666D01*
X112815714Y-128182666D01*
X112910952Y-128230285D01*
X112958571Y-128277904D01*
X113006190Y-128373142D01*
X113006190Y-128754095D01*
X112910952Y-127611238D02*
X112863333Y-127706476D01*
X112815714Y-127754095D01*
X112720476Y-127801714D01*
X112672857Y-127801714D01*
X112577619Y-127754095D01*
X112530000Y-127706476D01*
X112482380Y-127611238D01*
X112482380Y-127420761D01*
X112530000Y-127325523D01*
X112577619Y-127277904D01*
X112672857Y-127230285D01*
X112720476Y-127230285D01*
X112815714Y-127277904D01*
X112863333Y-127325523D01*
X112910952Y-127420761D01*
X112910952Y-127611238D01*
X112958571Y-127706476D01*
X113006190Y-127754095D01*
X113101428Y-127801714D01*
X113291904Y-127801714D01*
X113387142Y-127754095D01*
X113434761Y-127706476D01*
X113482380Y-127611238D01*
X113482380Y-127420761D01*
X113434761Y-127325523D01*
X113387142Y-127277904D01*
X113291904Y-127230285D01*
X113101428Y-127230285D01*
X113006190Y-127277904D01*
X112958571Y-127325523D01*
X112910952Y-127420761D01*
%TO.C,R7*%
X111196380Y-128182666D02*
X110720190Y-128516000D01*
X111196380Y-128754095D02*
X110196380Y-128754095D01*
X110196380Y-128373142D01*
X110244000Y-128277904D01*
X110291619Y-128230285D01*
X110386857Y-128182666D01*
X110529714Y-128182666D01*
X110624952Y-128230285D01*
X110672571Y-128277904D01*
X110720190Y-128373142D01*
X110720190Y-128754095D01*
X110196380Y-127849333D02*
X110196380Y-127182666D01*
X111196380Y-127611238D01*
%TO.C,R6*%
X102703333Y-118308380D02*
X102370000Y-117832190D01*
X102131904Y-118308380D02*
X102131904Y-117308380D01*
X102512857Y-117308380D01*
X102608095Y-117356000D01*
X102655714Y-117403619D01*
X102703333Y-117498857D01*
X102703333Y-117641714D01*
X102655714Y-117736952D01*
X102608095Y-117784571D01*
X102512857Y-117832190D01*
X102131904Y-117832190D01*
X103560476Y-117308380D02*
X103370000Y-117308380D01*
X103274761Y-117356000D01*
X103227142Y-117403619D01*
X103131904Y-117546476D01*
X103084285Y-117736952D01*
X103084285Y-118117904D01*
X103131904Y-118213142D01*
X103179523Y-118260761D01*
X103274761Y-118308380D01*
X103465238Y-118308380D01*
X103560476Y-118260761D01*
X103608095Y-118213142D01*
X103655714Y-118117904D01*
X103655714Y-117879809D01*
X103608095Y-117784571D01*
X103560476Y-117736952D01*
X103465238Y-117689333D01*
X103274761Y-117689333D01*
X103179523Y-117736952D01*
X103131904Y-117784571D01*
X103084285Y-117879809D01*
%TO.C,R5*%
X98500030Y-112451732D02*
X97927610Y-112350717D01*
X98095969Y-112855793D02*
X97388862Y-112148687D01*
X97658236Y-111879312D01*
X97759251Y-111845641D01*
X97826595Y-111845641D01*
X97927610Y-111879312D01*
X98028625Y-111980328D01*
X98062297Y-112081343D01*
X98062297Y-112148687D01*
X98028625Y-112249702D01*
X97759251Y-112519076D01*
X98432687Y-111104862D02*
X98095969Y-111441580D01*
X98399015Y-111811969D01*
X98399015Y-111744625D01*
X98432687Y-111643610D01*
X98601045Y-111475251D01*
X98702061Y-111441580D01*
X98769404Y-111441580D01*
X98870419Y-111475251D01*
X99038778Y-111643610D01*
X99072450Y-111744625D01*
X99072450Y-111811969D01*
X99038778Y-111912984D01*
X98870419Y-112081343D01*
X98769404Y-112115015D01*
X98702061Y-112115015D01*
%TO.C,R4*%
X105862380Y-128182666D02*
X105386190Y-128516000D01*
X105862380Y-128754095D02*
X104862380Y-128754095D01*
X104862380Y-128373142D01*
X104910000Y-128277904D01*
X104957619Y-128230285D01*
X105052857Y-128182666D01*
X105195714Y-128182666D01*
X105290952Y-128230285D01*
X105338571Y-128277904D01*
X105386190Y-128373142D01*
X105386190Y-128754095D01*
X105195714Y-127325523D02*
X105862380Y-127325523D01*
X104814761Y-127563619D02*
X105529047Y-127801714D01*
X105529047Y-127182666D01*
%TO.C,R3*%
X108402380Y-128182666D02*
X107926190Y-128516000D01*
X108402380Y-128754095D02*
X107402380Y-128754095D01*
X107402380Y-128373142D01*
X107450000Y-128277904D01*
X107497619Y-128230285D01*
X107592857Y-128182666D01*
X107735714Y-128182666D01*
X107830952Y-128230285D01*
X107878571Y-128277904D01*
X107926190Y-128373142D01*
X107926190Y-128754095D01*
X107402380Y-127849333D02*
X107402380Y-127230285D01*
X107783333Y-127563619D01*
X107783333Y-127420761D01*
X107830952Y-127325523D01*
X107878571Y-127277904D01*
X107973809Y-127230285D01*
X108211904Y-127230285D01*
X108307142Y-127277904D01*
X108354761Y-127325523D01*
X108402380Y-127420761D01*
X108402380Y-127706476D01*
X108354761Y-127801714D01*
X108307142Y-127849333D01*
%TO.C,R2*%
X103322380Y-128182666D02*
X102846190Y-128516000D01*
X103322380Y-128754095D02*
X102322380Y-128754095D01*
X102322380Y-128373142D01*
X102370000Y-128277904D01*
X102417619Y-128230285D01*
X102512857Y-128182666D01*
X102655714Y-128182666D01*
X102750952Y-128230285D01*
X102798571Y-128277904D01*
X102846190Y-128373142D01*
X102846190Y-128754095D01*
X102417619Y-127801714D02*
X102370000Y-127754095D01*
X102322380Y-127658857D01*
X102322380Y-127420761D01*
X102370000Y-127325523D01*
X102417619Y-127277904D01*
X102512857Y-127230285D01*
X102608095Y-127230285D01*
X102750952Y-127277904D01*
X103322380Y-127849333D01*
X103322380Y-127230285D01*
%TO.C,R1*%
X103147833Y-110497880D02*
X102814500Y-110021690D01*
X102576404Y-110497880D02*
X102576404Y-109497880D01*
X102957357Y-109497880D01*
X103052595Y-109545500D01*
X103100214Y-109593119D01*
X103147833Y-109688357D01*
X103147833Y-109831214D01*
X103100214Y-109926452D01*
X103052595Y-109974071D01*
X102957357Y-110021690D01*
X102576404Y-110021690D01*
X104100214Y-110497880D02*
X103528785Y-110497880D01*
X103814500Y-110497880D02*
X103814500Y-109497880D01*
X103719261Y-109640738D01*
X103624023Y-109735976D01*
X103528785Y-109783595D01*
%TO.C,U1*%
X118618095Y-71842380D02*
X118618095Y-72651904D01*
X118665714Y-72747142D01*
X118713333Y-72794761D01*
X118808571Y-72842380D01*
X118999047Y-72842380D01*
X119094285Y-72794761D01*
X119141904Y-72747142D01*
X119189523Y-72651904D01*
X119189523Y-71842380D01*
X120189523Y-72842380D02*
X119618095Y-72842380D01*
X119903809Y-72842380D02*
X119903809Y-71842380D01*
X119808571Y-71985238D01*
X119713333Y-72080476D01*
X119618095Y-72128095D01*
%TO.C,U2*%
X97790095Y-71842380D02*
X97790095Y-72651904D01*
X97837714Y-72747142D01*
X97885333Y-72794761D01*
X97980571Y-72842380D01*
X98171047Y-72842380D01*
X98266285Y-72794761D01*
X98313904Y-72747142D01*
X98361523Y-72651904D01*
X98361523Y-71842380D01*
X98790095Y-71937619D02*
X98837714Y-71890000D01*
X98932952Y-71842380D01*
X99171047Y-71842380D01*
X99266285Y-71890000D01*
X99313904Y-71937619D01*
X99361523Y-72032857D01*
X99361523Y-72128095D01*
X99313904Y-72270952D01*
X98742476Y-72842380D01*
X99361523Y-72842380D01*
%TD*%
M02*
