%TF.GenerationSoftware,KiCad,Pcbnew,(5.1.9)-1*%
%TF.CreationDate,2021-04-02T06:19:05+03:00*%
%TF.ProjectId,fpga_hat,66706761-5f68-4617-942e-6b696361645f,rev?*%
%TF.SameCoordinates,Original*%
%TF.FileFunction,Soldermask,Bot*%
%TF.FilePolarity,Negative*%
%FSLAX46Y46*%
G04 Gerber Fmt 4.6, Leading zero omitted, Abs format (unit mm)*
G04 Created by KiCad (PCBNEW (5.1.9)-1) date 2021-04-02 06:19:05*
%MOMM*%
%LPD*%
G01*
G04 APERTURE LIST*
%ADD10C,4.000000*%
%ADD11C,1.600000*%
%ADD12R,1.600000X1.600000*%
%ADD13C,3.600000*%
%ADD14R,3.765000X3.765000*%
%ADD15O,1.700000X1.700000*%
%ADD16R,1.700000X1.700000*%
%ADD17O,1.600000X1.600000*%
G04 APERTURE END LIST*
D10*
%TO.C,VideoOut1*%
X109685000Y-135420000D03*
X84685000Y-135420000D03*
D11*
X92340000Y-137960000D03*
X94630000Y-137960000D03*
X96920000Y-137960000D03*
X99210000Y-137960000D03*
X101500000Y-137960000D03*
X93485000Y-135980000D03*
X95775000Y-135980000D03*
X98065000Y-135980000D03*
X100355000Y-135980000D03*
X102645000Y-135980000D03*
X92340000Y-134000000D03*
X94630000Y-134000000D03*
X96920000Y-134000000D03*
X99210000Y-134000000D03*
D12*
X101500000Y-134000000D03*
%TD*%
D13*
%TO.C,AudioR1*%
X121031000Y-134493000D03*
D14*
X121031000Y-138993000D03*
%TD*%
D13*
%TO.C,AudioL1*%
X133985000Y-134493000D03*
D14*
X133985000Y-138993000D03*
%TD*%
D10*
%TO.C,Joy2*%
X153462000Y-101752000D03*
X153462000Y-126752000D03*
D11*
X156002000Y-118407000D03*
X156002000Y-115637000D03*
X156002000Y-112867000D03*
X156002000Y-110097000D03*
X153162000Y-119792000D03*
X153162000Y-117022000D03*
X153162000Y-114252000D03*
X153162000Y-111482000D03*
D12*
X153162000Y-108712000D03*
%TD*%
D15*
%TO.C,Joy2.Aux1*%
X147040000Y-120660000D03*
X144500000Y-120660000D03*
X147040000Y-118120000D03*
X144500000Y-118120000D03*
X147040000Y-115580000D03*
X144500000Y-115580000D03*
X147040000Y-113040000D03*
X144500000Y-113040000D03*
X147040000Y-110500000D03*
D16*
X144500000Y-110500000D03*
%TD*%
D15*
%TO.C,U7*%
X139700000Y-128270000D03*
X137160000Y-128270000D03*
X139700000Y-125730000D03*
X137160000Y-125730000D03*
X139700000Y-123190000D03*
X137160000Y-123190000D03*
X139700000Y-120650000D03*
X137160000Y-120650000D03*
X139700000Y-118110000D03*
X137160000Y-118110000D03*
X139700000Y-115570000D03*
X137160000Y-115570000D03*
X139700000Y-113030000D03*
X137160000Y-113030000D03*
X139700000Y-110490000D03*
X137160000Y-110490000D03*
X139700000Y-107950000D03*
X137160000Y-107950000D03*
X139700000Y-105410000D03*
X137160000Y-105410000D03*
X139700000Y-102870000D03*
X137160000Y-102870000D03*
X139700000Y-100330000D03*
X137160000Y-100330000D03*
X139700000Y-97790000D03*
X137160000Y-97790000D03*
X139700000Y-95250000D03*
X137160000Y-95250000D03*
X139700000Y-92710000D03*
X137160000Y-92710000D03*
X139700000Y-90170000D03*
X137160000Y-90170000D03*
X139700000Y-87630000D03*
X137160000Y-87630000D03*
X139700000Y-85090000D03*
X137160000Y-85090000D03*
X139700000Y-82550000D03*
X137160000Y-82550000D03*
X139700000Y-80010000D03*
X137160000Y-80010000D03*
X139700000Y-77470000D03*
X137160000Y-77470000D03*
X139700000Y-74930000D03*
X137160000Y-74930000D03*
X139700000Y-72390000D03*
X137160000Y-72390000D03*
X139700000Y-69850000D03*
X137160000Y-69850000D03*
X139700000Y-67310000D03*
X137160000Y-67310000D03*
X139700000Y-64770000D03*
X137160000Y-64770000D03*
X139700000Y-62230000D03*
X137160000Y-62230000D03*
X139700000Y-59690000D03*
X137160000Y-59690000D03*
X139700000Y-57150000D03*
X137160000Y-57150000D03*
X139700000Y-54610000D03*
X137160000Y-54610000D03*
X139700000Y-52070000D03*
X137160000Y-52070000D03*
X139700000Y-49530000D03*
D16*
X137160000Y-49530000D03*
%TD*%
D15*
%TO.C,Serial1*%
X105380000Y-101500000D03*
X107920000Y-101500000D03*
X110460000Y-101500000D03*
D16*
X113000000Y-101500000D03*
%TD*%
D10*
%TO.C,Joy1*%
X153462000Y-68986000D03*
X153462000Y-93986000D03*
D11*
X156002000Y-85641000D03*
X156002000Y-82871000D03*
X156002000Y-80101000D03*
X156002000Y-77331000D03*
X153162000Y-87026000D03*
X153162000Y-84256000D03*
X153162000Y-81486000D03*
X153162000Y-78716000D03*
D12*
X153162000Y-75946000D03*
%TD*%
D15*
%TO.C,U8*%
X78740000Y-128270000D03*
X76200000Y-128270000D03*
X78740000Y-125730000D03*
X76200000Y-125730000D03*
X78740000Y-123190000D03*
X76200000Y-123190000D03*
X78740000Y-120650000D03*
X76200000Y-120650000D03*
X78740000Y-118110000D03*
X76200000Y-118110000D03*
X78740000Y-115570000D03*
X76200000Y-115570000D03*
X78740000Y-113030000D03*
X76200000Y-113030000D03*
X78740000Y-110490000D03*
X76200000Y-110490000D03*
X78740000Y-107950000D03*
X76200000Y-107950000D03*
X78740000Y-105410000D03*
X76200000Y-105410000D03*
X78740000Y-102870000D03*
X76200000Y-102870000D03*
X78740000Y-100330000D03*
X76200000Y-100330000D03*
X78740000Y-97790000D03*
X76200000Y-97790000D03*
X78740000Y-95250000D03*
X76200000Y-95250000D03*
X78740000Y-92710000D03*
X76200000Y-92710000D03*
X78740000Y-90170000D03*
X76200000Y-90170000D03*
X78740000Y-87630000D03*
X76200000Y-87630000D03*
X78740000Y-85090000D03*
X76200000Y-85090000D03*
X78740000Y-82550000D03*
X76200000Y-82550000D03*
X78740000Y-80010000D03*
X76200000Y-80010000D03*
X78740000Y-77470000D03*
X76200000Y-77470000D03*
X78740000Y-74930000D03*
X76200000Y-74930000D03*
X78740000Y-72390000D03*
X76200000Y-72390000D03*
X78740000Y-69850000D03*
X76200000Y-69850000D03*
X78740000Y-67310000D03*
X76200000Y-67310000D03*
X78740000Y-64770000D03*
X76200000Y-64770000D03*
X78740000Y-62230000D03*
X76200000Y-62230000D03*
X78740000Y-59690000D03*
X76200000Y-59690000D03*
X78740000Y-57150000D03*
X76200000Y-57150000D03*
X78740000Y-54610000D03*
X76200000Y-54610000D03*
X78740000Y-52070000D03*
X76200000Y-52070000D03*
X78740000Y-49530000D03*
D16*
X76200000Y-49530000D03*
%TD*%
D17*
%TO.C,U1*%
X127000000Y-55880000D03*
X111760000Y-93980000D03*
X127000000Y-58420000D03*
X111760000Y-91440000D03*
X127000000Y-60960000D03*
X111760000Y-88900000D03*
X127000000Y-63500000D03*
X111760000Y-86360000D03*
X127000000Y-66040000D03*
X111760000Y-83820000D03*
X127000000Y-68580000D03*
X111760000Y-81280000D03*
X127000000Y-71120000D03*
X111760000Y-78740000D03*
X127000000Y-73660000D03*
X111760000Y-76200000D03*
X127000000Y-76200000D03*
X111760000Y-73660000D03*
X127000000Y-78740000D03*
X111760000Y-71120000D03*
X127000000Y-81280000D03*
X111760000Y-68580000D03*
X127000000Y-83820000D03*
X111760000Y-66040000D03*
X127000000Y-86360000D03*
X111760000Y-63500000D03*
X127000000Y-88900000D03*
X111760000Y-60960000D03*
X127000000Y-91440000D03*
X111760000Y-58420000D03*
X127000000Y-93980000D03*
D12*
X111760000Y-55880000D03*
%TD*%
D17*
%TO.C,U2*%
X106172000Y-55880000D03*
X90932000Y-93980000D03*
X106172000Y-58420000D03*
X90932000Y-91440000D03*
X106172000Y-60960000D03*
X90932000Y-88900000D03*
X106172000Y-63500000D03*
X90932000Y-86360000D03*
X106172000Y-66040000D03*
X90932000Y-83820000D03*
X106172000Y-68580000D03*
X90932000Y-81280000D03*
X106172000Y-71120000D03*
X90932000Y-78740000D03*
X106172000Y-73660000D03*
X90932000Y-76200000D03*
X106172000Y-76200000D03*
X90932000Y-73660000D03*
X106172000Y-78740000D03*
X90932000Y-71120000D03*
X106172000Y-81280000D03*
X90932000Y-68580000D03*
X106172000Y-83820000D03*
X90932000Y-66040000D03*
X106172000Y-86360000D03*
X90932000Y-63500000D03*
X106172000Y-88900000D03*
X90932000Y-60960000D03*
X106172000Y-91440000D03*
X90932000Y-58420000D03*
X106172000Y-93980000D03*
D12*
X90932000Y-55880000D03*
%TD*%
M02*
